<svg version="1.1" id="Layer_1" xmlns="http://www.w3.org/2000/svg" xmlns:xlink="http://www.w3.org/1999/xlink" x="0px" y="0px"
	 width="100%" viewBox="0 0 648 648" enable-background="new 0 0 648 648" xml:space="preserve">
<path fill="#000001" opacity="1.000000" stroke="none" 
	d="
M649.000000,253.000000 
	C649.000000,385.333313 649.000000,517.166626 649.000000,649.000000 
	C433.000061,649.000000 217.000122,649.000000 1.000140,649.000000 
	C1.000093,433.000092 1.000093,217.000198 1.000047,1.000227 
	C216.999863,1.000151 432.999725,1.000151 648.999756,1.000076 
	C649.000000,84.833336 649.000000,168.666672 649.000000,253.000000 
M613.051208,317.184418 
	C611.693359,305.544312 610.898621,293.804688 608.861572,282.284668 
	C604.500305,257.620483 597.751892,233.645828 586.566589,211.047974 
	C577.720032,193.175186 567.411194,176.230286 555.469910,160.288895 
	C553.157837,157.202316 550.036316,154.722122 547.057373,151.086609 
	C546.995422,148.069946 546.933411,145.053299 547.350891,141.807739 
	C547.086243,141.184097 546.821594,140.560455 546.157837,139.195755 
	C538.304016,98.000168 498.173401,74.057480 458.084351,86.500366 
	C446.911530,89.968185 437.359985,96.148003 427.437836,102.920090 
	C407.346039,93.553009 386.443726,87.049889 364.476898,83.545776 
	C341.616486,79.899109 318.690735,79.356903 296.114227,83.514381 
	C278.606445,86.738449 261.618073,92.820358 244.439713,97.773651 
	C239.202774,99.283691 234.101517,101.264244 228.315781,102.850594 
	C226.870071,101.583176 225.424377,100.315758 223.904251,98.307983 
	C223.092392,97.958916 222.280548,97.609848 220.876724,97.129402 
	C219.918289,96.418480 218.959854,95.707558 217.878036,94.238220 
	C217.009613,93.981438 216.141174,93.724648 214.625229,93.321457 
	C212.429474,92.132004 210.233734,90.942551 207.850983,89.030251 
	C206.976166,88.883232 206.101349,88.736206 204.542343,88.548683 
	C203.041275,87.945541 201.540207,87.342392 199.989365,86.177032 
	C199.321320,86.137688 198.653275,86.098343 197.308273,86.100334 
	C196.889694,85.940407 196.471100,85.780479 195.991470,85.077408 
	C195.328156,85.049500 194.664841,85.021591 193.246841,85.058479 
	C192.519165,84.872551 191.791504,84.686630 190.981171,83.966515 
	C190.315216,84.000351 189.649277,84.034180 188.189392,84.178085 
	C187.144653,83.982735 186.099930,83.787384 184.792725,82.865952 
	C179.843872,83.114655 174.895004,83.363358 169.240036,83.887306 
	C168.488129,83.904755 167.736206,83.922203 166.646744,83.442627 
	C165.744522,83.817795 164.842300,84.192970 163.331009,84.877663 
	C162.881104,84.894096 162.431198,84.910530 161.716522,84.480026 
	C161.122467,84.823303 160.528412,85.166588 159.248978,85.868225 
	C135.250183,93.193169 120.011444,109.201912 112.038132,133.021088 
	C112.035515,133.683304 112.032898,134.345520 112.133667,135.764618 
	C111.920647,136.490479 111.707619,137.216339 110.957542,138.034531 
	C111.007683,138.699142 111.057816,139.363770 111.243874,140.926071 
	C111.007118,143.931641 110.770370,146.937195 109.906082,150.102081 
	C104.880913,156.849335 99.678513,163.472748 94.862045,170.365829 
	C76.549355,196.574020 62.931091,225.018814 54.542770,255.919052 
	C49.011482,276.294769 45.788532,297.019073 44.931969,319.039612 
	C44.888889,320.871002 44.777630,322.703705 44.812531,324.533600 
	C46.380100,406.727234 77.572487,476.094360 137.829681,531.411316 
	C202.040024,590.357361 278.381592,615.453674 365.211029,604.474243 
	C432.177185,596.006531 488.883270,565.713806 534.964844,516.755798 
	C587.288757,461.165741 613.482910,394.717072 613.051208,317.184418 
z"/>
<path fill="#FBFAFA" opacity="1.000000" stroke="none" 
	d="
M196.052521,85.620560 
	C196.471100,85.780479 196.889694,85.940407 197.817047,86.324028 
	C198.896942,86.611565 199.468033,86.675400 200.039139,86.739243 
	C201.540207,87.342392 203.041275,87.945541 205.091797,88.813126 
	C206.440155,89.302742 207.239075,89.527924 208.037979,89.753113 
	C210.233734,90.942551 212.429474,92.132004 215.135666,93.664703 
	C216.431213,94.337509 217.216309,94.667068 218.001419,94.996628 
	C218.959854,95.707558 219.918289,96.418480 221.309860,97.491676 
	C222.488220,98.252075 223.233459,98.650200 223.978683,99.048340 
	C225.424377,100.315758 226.870071,101.583176 228.738220,103.259171 
	C233.534271,107.725731 237.907883,111.783714 242.361893,115.916298 
	C243.483673,115.359520 244.520844,114.863281 245.541641,114.335373 
	C267.289429,103.088470 290.472534,96.784851 314.805328,94.995758 
	C349.077972,92.475822 381.768951,98.586258 412.657837,113.925499 
	C414.002014,114.592995 416.638733,114.530640 417.658661,113.642746 
	C421.394928,110.390106 424.701843,106.644264 428.170410,103.084137 
	C437.359985,96.148003 446.911530,89.968185 458.084351,86.500366 
	C498.173401,74.057480 538.304016,98.000168 546.227661,139.828415 
	C546.488770,140.986267 546.680115,141.511459 546.871460,142.036636 
	C546.933411,145.053299 546.995422,148.069946 547.007874,151.927383 
	C544.657776,182.061142 527.282593,201.989960 504.689362,219.207962 
	C507.001343,220.494797 508.567993,221.345093 510.114349,222.230759 
	C531.567688,234.517838 549.191833,250.641205 560.630249,272.894958 
	C561.530884,274.647217 561.790161,276.729126 562.402344,278.847382 
	C554.365845,274.471436 547.220642,270.580780 539.973022,266.348297 
	C539.027161,265.869934 538.183594,265.733429 537.002808,265.538055 
	C535.809265,265.165680 534.952820,264.852203 534.005127,264.212067 
	C532.616028,263.321564 531.355469,262.608795 530.001343,262.269806 
	C529.484741,262.140442 528.753540,262.867920 528.120178,263.204926 
	C528.669922,263.820129 529.219727,264.435333 529.909424,265.364319 
	C535.473022,273.290253 540.896667,280.902405 546.232666,288.897003 
	C548.302917,293.216675 550.460815,297.153900 552.816650,301.365356 
	C553.507385,302.887665 554.000244,304.135803 554.353882,305.772064 
	C555.604553,309.481201 556.994568,312.802155 558.565063,316.407440 
	C558.802063,317.133636 558.858459,317.575562 558.680664,318.210327 
	C559.132629,319.971069 559.818909,321.538879 560.669556,323.436249 
	C561.140564,325.194000 561.447327,326.622162 561.530029,328.228455 
	C561.687805,329.309021 562.069580,330.211517 562.602844,331.412170 
	C562.779175,332.151886 562.803955,332.593475 562.598450,333.208557 
	C562.730957,334.291870 563.093750,335.201752 563.595947,336.457336 
	C563.785706,337.543274 563.835938,338.283508 563.651611,339.188843 
	C563.734436,340.276215 564.051941,341.198456 564.517578,342.490356 
	C564.732971,343.915924 564.800171,344.971893 564.617065,346.244934 
	C564.675964,348.016541 564.985168,349.571045 565.417908,351.549255 
	C565.589783,354.623047 565.638184,357.273163 565.370789,359.907318 
	C564.639832,359.963013 564.224609,360.034637 563.567993,359.864746 
	C555.645447,344.922882 544.526001,330.016266 538.850769,327.220947 
	C545.115723,346.411743 548.046570,365.752289 546.743713,385.583038 
	C545.444031,405.365875 540.512512,424.076904 530.133606,441.046967 
	C529.856995,432.644928 530.798157,424.423706 530.431213,416.261292 
	C530.069336,408.209747 528.383484,400.217743 527.278503,392.199646 
	C526.792725,392.270874 526.306946,392.342102 525.821167,392.413330 
	C522.928467,398.559570 520.351990,404.881989 517.054199,410.802612 
	C513.741089,416.750763 509.998718,422.515808 505.912476,427.961975 
	C501.725220,433.542816 497.129791,438.868988 492.274994,443.882477 
	C487.678955,448.628662 482.514618,452.824524 477.600220,457.262421 
	C478.220734,452.196075 479.848175,448.037842 481.083374,443.766144 
	C482.278931,439.631653 483.070892,435.380463 484.040131,431.180542 
	C469.994873,450.435059 454.671326,467.717804 433.728668,479.101807 
	C441.531494,467.329895 448.089935,455.223358 451.253937,441.073517 
	C449.965118,441.131134 449.428589,441.017365 449.023621,441.198303 
	C447.657166,441.808685 446.337250,442.523376 444.999817,443.198792 
	C430.048340,450.748932 414.892914,457.531036 397.569061,457.116760 
	C395.981018,457.078796 394.168671,458.262085 392.780487,459.304474 
	C380.709991,468.368011 367.610138,475.551025 353.593658,481.102325 
	C341.137390,486.035736 328.255859,486.981537 315.285461,484.183716 
	C296.850586,480.207153 281.056458,470.613098 265.907410,459.812775 
	C264.216522,458.607239 262.158966,457.060242 260.293701,457.089508 
	C244.448120,457.338135 230.245407,451.893524 216.407135,445.013824 
	C213.629913,443.633118 210.872604,442.212341 208.106110,440.810059 
	C207.575531,441.118683 207.044968,441.427338 206.514404,441.735992 
	C209.024887,448.077118 211.205994,454.575592 214.138580,460.715088 
	C217.064148,466.839905 220.742737,472.605011 224.091187,478.527832 
	C203.605255,466.546173 187.567200,450.446075 175.167786,430.410461 
	C174.433624,429.674896 173.668610,429.254791 172.903595,428.834656 
	C173.090485,429.548828 173.277359,430.263000 173.589050,431.305481 
	C173.734451,432.100281 173.755081,432.566742 173.553879,433.213959 
	C173.719620,434.314850 174.107162,435.234985 174.635849,436.488770 
	C175.113068,438.225128 175.449142,439.627869 175.570496,441.237457 
	C176.028992,443.022034 176.702240,444.599701 177.551743,446.481750 
	C177.997833,447.684021 178.267654,448.581940 178.384003,449.819916 
	C177.833282,451.431580 177.436035,452.703217 176.744339,453.815125 
	C156.340973,437.254181 141.406525,417.021637 131.676147,391.297516 
	C130.701172,394.620087 129.881546,396.300537 129.752670,398.032349 
	C128.893753,409.574646 128.115433,421.124146 127.462997,432.679901 
	C127.261238,436.253296 127.532562,439.853424 127.599197,443.403992 
	C127.611122,443.366638 127.674339,443.404480 127.514206,443.088135 
	C108.549324,405.937500 107.162399,367.554718 118.491653,328.041473 
	C117.719284,327.852081 116.946907,327.662689 116.174538,327.473297 
	C108.269714,339.061859 100.364891,350.650452 91.972397,362.953949 
	C92.073364,325.052643 104.860352,292.610931 129.351913,263.379395 
	C115.636978,266.263519 105.107117,273.053619 94.169571,279.113647 
	C106.332886,251.506088 127.258522,232.888824 153.264877,219.221695 
	C119.393898,189.195312 114.186470,180.711929 110.533615,149.942764 
	C110.770370,146.937195 111.007118,143.931641 111.390274,140.278366 
	C111.522652,139.067841 111.508629,138.505020 111.494598,137.942200 
	C111.707619,137.216339 111.920647,136.490479 112.302399,135.196564 
	C112.506927,134.068512 112.542725,133.508514 112.578514,132.948517 
	C120.011444,109.201912 135.250183,93.193169 159.868591,85.764801 
	C160.985886,85.416565 161.483582,85.171753 161.981293,84.926956 
	C162.431198,84.910530 162.881104,84.894096 163.951187,84.808807 
	C165.375671,84.473190 166.179993,84.206421 166.984299,83.939651 
	C167.736206,83.922203 168.488129,83.904755 170.052582,83.855141 
	C175.595154,83.745995 180.325180,83.669014 185.055191,83.592041 
	C186.099930,83.787384 187.144653,83.982735 188.785034,84.334412 
	C189.941742,84.494057 190.502777,84.497383 191.063828,84.500702 
	C191.791504,84.686630 192.519165,84.872551 193.802734,85.261124 
	C194.923248,85.516037 195.487885,85.568298 196.052521,85.620560 
M424.950775,422.351166 
	C423.239685,426.765228 421.528564,431.179291 419.548431,436.287354 
	C420.961243,435.701660 421.750916,435.529114 422.358856,435.099365 
	C434.713745,426.366089 447.632996,418.310150 459.255493,408.688721 
	C479.038910,392.311401 486.267303,370.708923 481.309784,345.530090 
	C473.868774,307.737915 454.279297,277.088806 424.730377,252.774429 
	C414.546967,244.395035 402.717194,239.083481 389.365509,237.659500 
	C372.524323,235.863373 361.463104,243.795593 357.847198,260.430206 
	C353.976471,278.237122 359.571228,294.172455 368.481628,309.016632 
	C376.185822,321.851257 385.097137,333.955566 393.265625,346.518738 
	C402.789856,361.166962 412.454041,375.745636 421.348236,390.774200 
	C426.929749,400.205322 428.897034,410.684784 424.950775,422.351166 
M179.540863,331.103088 
	C179.102844,332.709961 178.655426,334.314362 178.228210,335.924103 
	C170.089844,366.589233 177.627792,392.392059 202.796280,412.124084 
	C213.116302,420.214996 224.363663,427.124420 235.218185,434.528778 
	C235.884460,434.983276 236.805801,435.063843 238.218781,435.511993 
	C237.661774,434.017151 237.478165,433.210449 237.087265,432.521362 
	C228.050751,416.592529 228.965073,400.913239 238.653961,385.709839 
	C248.046829,370.970978 257.583405,356.315918 267.399994,341.856995 
	C278.161621,326.006073 289.609619,310.580109 296.526764,292.493011 
	C301.182678,280.318604 302.557434,267.914246 297.896240,255.382874 
	C293.151520,242.626907 283.486450,236.563629 269.955688,237.489914 
	C253.239319,238.634277 239.242081,245.929291 227.012238,256.812439 
	C204.449051,276.890991 189.040207,301.659760 179.540863,331.103088 
M434.338287,116.812416 
	C431.607178,119.497398 428.771973,122.085548 426.166229,124.887146 
	C420.413330,131.072510 420.361938,131.169281 424.378479,138.648392 
	C439.688538,167.156998 461.483215,190.142334 485.973480,210.835052 
	C488.037415,212.578964 489.724457,212.522446 491.647003,210.866043 
	C497.062714,206.200058 503.049103,202.058228 507.825256,196.812637 
	C526.096008,176.746109 528.077881,144.874329 512.750427,124.263168 
	C494.693390,99.981461 459.371307,95.173553 434.338287,116.812416 
M213.626221,168.105499 
	C220.761871,157.083267 227.880814,146.050140 235.044601,135.046234 
	C236.907623,132.184586 236.464188,129.735229 234.015549,127.527466 
	C228.340408,122.410606 223.166336,116.538017 216.874557,112.343742 
	C200.090958,101.155319 181.952942,99.557228 163.730515,108.408287 
	C145.767532,117.133339 136.335663,132.295624 134.788818,152.037247 
	C132.810333,177.287598 144.461487,195.776840 164.435547,210.012283 
	C167.800476,212.410446 170.117676,212.532654 172.989838,209.586014 
	C186.335114,195.894806 199.772888,182.293747 213.626221,168.105499 
M370.765076,389.839661 
	C371.841797,379.181030 366.948059,371.154236 355.666840,370.264618 
	C337.976624,368.869629 320.118134,369.600891 302.330627,369.471069 
	C301.523499,369.465179 300.705688,369.819427 299.906097,370.051544 
	C285.429230,374.253357 281.235992,388.098999 291.453217,399.173584 
	C295.241180,403.279358 300.097961,406.430359 304.608917,409.828766 
	C308.861816,413.032867 313.562927,415.682861 317.597687,419.126373 
	C323.875854,424.484497 322.358704,433.014465 314.583130,435.775543 
	C311.081024,437.019135 307.063385,437.466644 303.329559,437.279419 
	C291.938416,436.708191 284.921234,429.882355 280.010132,420.165039 
	C279.189758,418.541718 277.153656,417.532806 275.679321,416.239990 
	C275.254517,418.192230 274.254028,420.223083 274.507904,422.082672 
	C275.441864,428.923981 278.765015,434.652924 283.814270,439.332184 
	C294.185822,448.943787 306.438324,450.006287 319.332642,446.431091 
	C325.655975,444.677826 331.517853,444.413727 337.888184,446.358429 
	C342.569275,447.787384 347.757446,448.232635 352.682434,448.059174 
	C368.021637,447.519043 380.880005,436.325439 383.127319,421.863464 
	C383.414429,420.015747 382.390991,417.964355 381.974701,416.007324 
	C380.479218,417.228821 378.813629,418.298492 377.543671,419.721283 
	C376.577454,420.803833 376.178223,422.373077 375.416656,423.660645 
	C368.720367,434.981567 355.990936,440.253387 344.694153,436.412018 
	C335.344574,433.232819 333.418182,424.204956 341.050598,417.961334 
	C346.193970,413.753906 351.913208,410.256378 357.306183,406.346558 
	C363.005707,402.214539 368.586548,397.938782 370.765076,389.839661 
z"/>
<path fill="#1C1C1C" opacity="1.000000" stroke="none" 
	d="
M173.775696,433.033234 
	C173.755081,432.566742 173.734451,432.100281 174.009995,431.261169 
	C174.583084,430.834290 174.860001,430.780090 175.136917,430.725891 
	C187.567200,450.446075 203.605255,466.546173 224.091187,478.527832 
	C220.742737,472.605011 217.064148,466.839905 214.138580,460.715088 
	C211.205994,454.575592 209.024887,448.077118 206.514404,441.735992 
	C207.044968,441.427338 207.575531,441.118683 208.106110,440.810059 
	C210.872604,442.212341 213.629913,443.633118 216.407135,445.013824 
	C230.245407,451.893524 244.448120,457.338135 260.293701,457.089508 
	C262.158966,457.060242 264.216522,458.607239 265.907410,459.812775 
	C281.056458,470.613098 296.850586,480.207153 315.285461,484.183716 
	C328.255859,486.981537 341.137390,486.035736 353.593658,481.102325 
	C367.610138,475.551025 380.709991,468.368011 392.780487,459.304474 
	C394.168671,458.262085 395.981018,457.078796 397.569061,457.116760 
	C414.892914,457.531036 430.048340,450.748932 444.999817,443.198792 
	C446.337250,442.523376 447.657166,441.808685 449.023621,441.198303 
	C449.428589,441.017365 449.965118,441.131134 451.253937,441.073517 
	C448.089935,455.223358 441.531494,467.329895 433.728668,479.101807 
	C454.671326,467.717804 469.994873,450.435059 484.040131,431.180542 
	C483.070892,435.380463 482.278931,439.631653 481.083374,443.766144 
	C479.848175,448.037842 478.220734,452.196075 477.600220,457.262421 
	C482.514618,452.824524 487.678955,448.628662 492.274994,443.882477 
	C497.129791,438.868988 501.725220,433.542816 505.912476,427.961975 
	C509.998718,422.515808 513.741089,416.750763 517.054199,410.802612 
	C520.351990,404.881989 522.928467,398.559570 525.821167,392.413330 
	C526.306946,392.342102 526.792725,392.270874 527.278503,392.199646 
	C528.383484,400.217743 530.069336,408.209747 530.431213,416.261292 
	C530.798157,424.423706 529.856995,432.644928 530.133606,441.046967 
	C540.512512,424.076904 545.444031,405.365875 546.743713,385.583038 
	C548.046570,365.752289 545.115723,346.411743 538.850769,327.220947 
	C544.526001,330.016266 555.645447,344.922882 563.548584,360.186523 
	C564.288452,361.518463 564.806335,362.287109 566.095947,364.201019 
	C565.865173,361.790192 565.775818,360.856720 565.686523,359.923248 
	C565.638184,357.273163 565.589783,354.623047 565.567139,351.193420 
	C565.351074,348.951874 565.109253,347.489868 564.867371,346.027832 
	C564.800171,344.971893 564.732971,343.915924 564.656860,342.184082 
	C564.394043,340.680054 564.140137,339.851898 563.886230,339.023743 
	C563.835938,338.283508 563.785706,337.543274 563.715271,336.144836 
	C563.406311,334.669464 563.117493,333.852295 562.828735,333.035095 
	C562.803955,332.593475 562.779175,332.151886 562.703674,331.093079 
	C562.353333,329.667389 562.053711,328.858856 561.754089,328.050354 
	C561.447327,326.622162 561.140564,325.194000 560.734985,323.095459 
	C560.062317,320.955872 559.488647,319.486664 558.914917,318.017456 
	C558.858459,317.575562 558.802063,317.133636 558.629883,316.046509 
	C557.173767,312.062164 555.833435,308.723053 554.493103,305.383911 
	C554.000244,304.135803 553.507385,302.887665 552.839233,301.009338 
	C550.549316,296.424316 548.434814,292.469452 546.320312,288.514587 
	C540.896667,280.902405 535.473022,273.290253 530.099854,265.052612 
	C531.465698,264.464355 532.781067,264.501556 534.096436,264.538727 
	C534.952820,264.852203 535.809265,265.165680 537.208984,265.769653 
	C538.526611,266.270111 539.301025,266.480133 540.075378,266.690155 
	C547.220642,270.580780 554.365845,274.471436 562.402344,278.847382 
	C561.790161,276.729126 561.530884,274.647217 560.630249,272.894958 
	C549.191833,250.641205 531.567688,234.517838 510.114349,222.230759 
	C508.567993,221.345093 507.001343,220.494797 504.689362,219.207962 
	C527.282593,201.989960 544.657776,182.061142 547.123291,152.365173 
	C550.036316,154.722122 553.157837,157.202316 555.469910,160.288895 
	C567.411194,176.230286 577.720032,193.175186 586.566589,211.047974 
	C597.751892,233.645828 604.500305,257.620483 608.861572,282.284668 
	C610.898621,293.804688 611.693359,305.544312 612.598633,317.580383 
	C608.129578,318.860474 604.112976,319.744598 600.177673,320.610870 
	C602.935059,457.358551 490.642334,581.552124 350.195770,592.680359 
	C286.392548,597.735840 227.431351,582.277771 175.531433,544.724182 
	C99.468727,489.686951 60.191833,414.473022 57.646763,320.710815 
	C53.171047,319.791534 49.114235,318.958282 45.057426,318.125061 
	C45.788532,297.019073 49.011482,276.294769 54.542770,255.919052 
	C62.931091,225.018814 76.549355,196.574020 94.862045,170.365829 
	C99.678513,163.472748 104.880913,156.849335 110.219849,150.022430 
	C114.186470,180.711929 119.393898,189.195312 153.264877,219.221695 
	C127.258522,232.888824 106.332886,251.506088 94.169571,279.113647 
	C105.107117,273.053619 115.636978,266.263519 129.351913,263.379395 
	C104.860352,292.610931 92.073364,325.052643 91.972397,362.953949 
	C100.364891,350.650452 108.269714,339.061859 116.174538,327.473297 
	C116.946907,327.662689 117.719284,327.852081 118.491653,328.041473 
	C107.162399,367.554718 108.549324,405.937500 127.649048,442.981262 
	C128.010437,443.199493 128.076859,443.208282 128.143265,443.217072 
	C127.957947,443.291840 127.772621,443.366577 127.587288,443.441315 
	C127.532562,439.853424 127.261238,436.253296 127.462997,432.679901 
	C128.115433,421.124146 128.893753,409.574646 129.752670,398.032349 
	C129.881546,396.300537 130.701172,394.620087 131.676147,391.297516 
	C141.406525,417.021637 156.340973,437.254181 176.831055,454.128784 
	C178.518860,455.592957 179.825485,456.583740 181.132126,457.574554 
	C181.399323,457.320374 181.666519,457.066223 181.933716,456.812073 
	C180.801636,454.368011 179.669571,451.923920 178.537491,449.479858 
	C178.267654,448.581940 177.997833,447.684021 177.611206,446.137939 
	C176.924667,444.003387 176.354935,442.516998 175.785217,441.030579 
	C175.449142,439.627869 175.113068,438.225128 174.726990,436.163147 
	C174.376572,434.680359 174.076126,433.856781 173.775696,433.033234 
z"/>
<path fill="#F4F3F3" opacity="1.000000" stroke="none" 
	d="
M44.994698,318.582336 
	C49.114235,318.958282 53.171047,319.791534 57.646763,320.710815 
	C60.191833,414.473022 99.468727,489.686951 175.531433,544.724182 
	C227.431351,582.277771 286.392548,597.735840 350.195770,592.680359 
	C490.642334,581.552124 602.935059,457.358551 600.177673,320.610870 
	C604.112976,319.744598 608.129578,318.860474 612.554443,318.028503 
	C613.482910,394.717072 587.288757,461.165741 534.964844,516.755798 
	C488.883270,565.713806 432.177185,596.006531 365.211029,604.474243 
	C278.381592,615.453674 202.040024,590.357361 137.829681,531.411316 
	C77.572487,476.094360 46.380100,406.727234 44.812531,324.533600 
	C44.777630,322.703705 44.888889,320.871002 44.994698,318.582336 
z"/>
<path fill="#1F1F20" opacity="1.000000" stroke="none" 
	d="
M427.804138,103.002106 
	C424.701843,106.644264 421.394928,110.390106 417.658661,113.642746 
	C416.638733,114.530640 414.002014,114.592995 412.657837,113.925499 
	C381.768951,98.586258 349.077972,92.475822 314.805328,94.995758 
	C290.472534,96.784851 267.289429,103.088470 245.541641,114.335373 
	C244.520844,114.863281 243.483673,115.359520 242.361893,115.916298 
	C237.907883,111.783714 233.534271,107.725731 229.049377,103.348526 
	C234.101517,101.264244 239.202774,99.283691 244.439713,97.773651 
	C261.618073,92.820358 278.606445,86.738449 296.114227,83.514381 
	C318.690735,79.356903 341.616486,79.899109 364.476898,83.545776 
	C386.443726,87.049889 407.346039,93.553009 427.804138,103.002106 
z"/>
<path fill="#1F1F20" opacity="1.000000" stroke="none" 
	d="
M184.923950,83.228996 
	C180.325180,83.669014 175.595154,83.745995 170.405640,83.717514 
	C174.895004,83.363358 179.843872,83.114655 184.923950,83.228996 
z"/>
<path fill="#1F1F20" opacity="1.000000" stroke="none" 
	d="
M166.815521,83.691132 
	C166.179993,84.206421 165.375671,84.473190 164.255722,84.654053 
	C164.842300,84.192970 165.744522,83.817795 166.815521,83.691132 
z"/>
<path fill="#1C1C1C" opacity="1.000000" stroke="none" 
	d="
M547.111206,141.922180 
	C546.680115,141.511459 546.488770,140.986267 546.427246,140.198944 
	C546.821594,140.560455 547.086243,141.184097 547.111206,141.922180 
z"/>
<path fill="#1F1F20" opacity="1.000000" stroke="none" 
	d="
M196.022003,85.348984 
	C195.487885,85.568298 194.923248,85.516037 194.180069,85.228729 
	C194.664841,85.021591 195.328156,85.049500 196.022003,85.348984 
z"/>
<path fill="#1F1F20" opacity="1.000000" stroke="none" 
	d="
M200.014252,86.458138 
	C199.468033,86.675400 198.896942,86.611565 198.155533,86.303360 
	C198.653275,86.098343 199.321320,86.137688 200.014252,86.458138 
z"/>
<path fill="#1F1F20" opacity="1.000000" stroke="none" 
	d="
M207.944489,89.391678 
	C207.239075,89.527924 206.440155,89.302742 205.433899,88.833374 
	C206.101349,88.736206 206.976166,88.883232 207.944489,89.391678 
z"/>
<path fill="#1F1F20" opacity="1.000000" stroke="none" 
	d="
M217.939728,94.617416 
	C217.216309,94.667068 216.431213,94.337509 215.459427,93.737907 
	C216.141174,93.724648 217.009613,93.981438 217.939728,94.617416 
z"/>
<path fill="#1F1F20" opacity="1.000000" stroke="none" 
	d="
M161.848907,84.703491 
	C161.483582,85.171753 160.985886,85.416565 160.211273,85.585617 
	C160.528412,85.166588 161.122467,84.823303 161.848907,84.703491 
z"/>
<path fill="#1F1F20" opacity="1.000000" stroke="none" 
	d="
M223.941467,98.678162 
	C223.233459,98.650200 222.488220,98.252075 221.605835,97.557373 
	C222.280548,97.609848 223.092392,97.958916 223.941467,98.678162 
z"/>
<path fill="#1C1C1C" opacity="1.000000" stroke="none" 
	d="
M112.308319,132.984802 
	C112.542725,133.508514 112.506927,134.068512 112.250702,134.818115 
	C112.032898,134.345520 112.035515,133.683304 112.308319,132.984802 
z"/>
<path fill="#1F1F20" opacity="1.000000" stroke="none" 
	d="
M191.022491,84.233612 
	C190.502777,84.497383 189.941742,84.494057 189.182007,84.279373 
	C189.649277,84.034180 190.315216,84.000351 191.022491,84.233612 
z"/>
<path fill="#1C1C1C" opacity="1.000000" stroke="none" 
	d="
M111.226074,137.988373 
	C111.508629,138.505020 111.522652,139.067841 111.322311,139.829529 
	C111.057816,139.363770 111.007683,138.699142 111.226074,137.988373 
z"/>
<path fill="#1D1D1D" opacity="1.000000" stroke="none" 
	d="
M425.062592,421.959717 
	C428.897034,410.684784 426.929749,400.205322 421.348236,390.774200 
	C412.454041,375.745636 402.789856,361.166962 393.265625,346.518738 
	C385.097137,333.955566 376.185822,321.851257 368.481628,309.016632 
	C359.571228,294.172455 353.976471,278.237122 357.847198,260.430206 
	C361.463104,243.795593 372.524323,235.863373 389.365509,237.659500 
	C402.717194,239.083481 414.546967,244.395035 424.730377,252.774429 
	C454.279297,277.088806 473.868774,307.737915 481.309784,345.530090 
	C486.267303,370.708923 479.038910,392.311401 459.255493,408.688721 
	C447.632996,418.310150 434.713745,426.366089 422.358856,435.099365 
	C421.750916,435.529114 420.961243,435.701660 419.548431,436.287354 
	C421.528564,431.179291 423.239685,426.765228 425.062592,421.959717 
M421.258118,293.242126 
	C418.057343,288.407410 415.151764,283.340057 411.575378,278.801270 
	C407.762756,273.962708 405.964691,273.918060 401.228210,277.696869 
	C397.471832,280.693756 393.884735,283.920929 390.390686,287.223816 
	C386.412720,290.984131 386.614105,294.642975 391.783661,296.331268 
	C402.855652,299.947205 414.244110,302.594086 425.502991,305.637817 
	C425.796112,305.146606 426.089264,304.655365 426.382385,304.164124 
	C424.795227,300.738800 423.208038,297.313507 421.258118,293.242126 
z"/>
<path fill="#1D1D1D" opacity="1.000000" stroke="none" 
	d="
M179.664062,330.719360 
	C189.040207,301.659760 204.449051,276.890991 227.012238,256.812439 
	C239.242081,245.929291 253.239319,238.634277 269.955688,237.489914 
	C283.486450,236.563629 293.151520,242.626907 297.896240,255.382874 
	C302.557434,267.914246 301.182678,280.318604 296.526764,292.493011 
	C289.609619,310.580109 278.161621,326.006073 267.399994,341.856995 
	C257.583405,356.315918 248.046829,370.970978 238.653961,385.709839 
	C228.965073,400.913239 228.050751,416.592529 237.087265,432.521362 
	C237.478165,433.210449 237.661774,434.017151 238.218781,435.511993 
	C236.805801,435.063843 235.884460,434.983276 235.218185,434.528778 
	C224.363663,427.124420 213.116302,420.214996 202.796280,412.124084 
	C177.627792,392.392059 170.089844,366.589233 178.228210,335.924103 
	C178.655426,334.314362 179.102844,332.709961 179.664062,330.719360 
M242.894821,282.404633 
	C238.287827,289.262360 233.861572,296.207458 231.249268,306.019531 
	C243.336655,302.860901 254.172501,300.051849 264.986938,297.162781 
	C265.904083,296.917755 266.769653,296.240692 267.502960,295.588715 
	C270.354065,293.053772 270.981964,290.457947 267.695374,287.682495 
	C263.889435,284.468475 260.292511,280.997437 256.389221,277.910706 
	C251.598175,274.121918 249.702133,274.439972 245.512512,279.113739 
	C244.737030,279.978821 244.049789,280.922943 242.894821,282.404633 
z"/>
<path fill="#1C1C1C" opacity="1.000000" stroke="none" 
	d="
M434.607635,116.581299 
	C459.371307,95.173553 494.693390,99.981461 512.750427,124.263168 
	C528.077881,144.874329 526.096008,176.746109 507.825256,196.812637 
	C503.049103,202.058228 497.062714,206.200058 491.647003,210.866043 
	C489.724457,212.522446 488.037415,212.578964 485.973480,210.835052 
	C461.483215,190.142334 439.688538,167.156998 424.378479,138.648392 
	C420.361938,131.169281 420.413330,131.072510 426.166229,124.887146 
	C428.771973,122.085548 431.607178,119.497398 434.607635,116.581299 
z"/>
<path fill="#1C1C1C" opacity="1.000000" stroke="none" 
	d="
M213.401886,168.382965 
	C199.772888,182.293747 186.335114,195.894806 172.989838,209.586014 
	C170.117676,212.532654 167.800476,212.410446 164.435547,210.012283 
	C144.461487,195.776840 132.810333,177.287598 134.788818,152.037247 
	C136.335663,132.295624 145.767532,117.133339 163.730515,108.408287 
	C181.952942,99.557228 200.090958,101.155319 216.874557,112.343742 
	C223.166336,116.538017 228.340408,122.410606 234.015549,127.527466 
	C236.464188,129.735229 236.907623,132.184586 235.044601,135.046234 
	C227.880814,146.050140 220.761871,157.083267 213.401886,168.382965 
z"/>
<path fill="#201F20" opacity="1.000000" stroke="none" 
	d="
M370.666382,390.243103 
	C368.586548,397.938782 363.005707,402.214539 357.306183,406.346558 
	C351.913208,410.256378 346.193970,413.753906 341.050598,417.961334 
	C333.418182,424.204956 335.344574,433.232819 344.694153,436.412018 
	C355.990936,440.253387 368.720367,434.981567 375.416656,423.660645 
	C376.178223,422.373077 376.577454,420.803833 377.543671,419.721283 
	C378.813629,418.298492 380.479218,417.228821 381.974701,416.007324 
	C382.390991,417.964355 383.414429,420.015747 383.127319,421.863464 
	C380.880005,436.325439 368.021637,447.519043 352.682434,448.059174 
	C347.757446,448.232635 342.569275,447.787384 337.888184,446.358429 
	C331.517853,444.413727 325.655975,444.677826 319.332642,446.431091 
	C306.438324,450.006287 294.185822,448.943787 283.814270,439.332184 
	C278.765015,434.652924 275.441864,428.923981 274.507904,422.082672 
	C274.254028,420.223083 275.254517,418.192230 275.679321,416.239990 
	C277.153656,417.532806 279.189758,418.541718 280.010132,420.165039 
	C284.921234,429.882355 291.938416,436.708191 303.329559,437.279419 
	C307.063385,437.466644 311.081024,437.019135 314.583130,435.775543 
	C322.358704,433.014465 323.875854,424.484497 317.597687,419.126373 
	C313.562927,415.682861 308.861816,413.032867 304.608917,409.828766 
	C300.097961,406.430359 295.241180,403.279358 291.453217,399.173584 
	C281.235992,388.098999 285.429230,374.253357 299.906097,370.051544 
	C300.705688,369.819427 301.523499,369.465179 302.330627,369.471069 
	C320.118134,369.600891 337.976624,368.869629 355.666840,370.264618 
	C366.948059,371.154236 371.841797,379.181030 370.666382,390.243103 
z"/>
<path fill="#CECDCD" opacity="1.000000" stroke="none" 
	d="
M546.232666,288.897003 
	C548.434814,292.469452 550.549316,296.424316 552.641296,300.735168 
	C550.460815,297.153900 548.302917,293.216675 546.232666,288.897003 
z"/>
<path fill="#BCBBBB" opacity="1.000000" stroke="none" 
	d="
M178.384003,449.819916 
	C179.669571,451.923920 180.801636,454.368011 181.933716,456.812073 
	C181.666519,457.066223 181.399323,457.320374 181.132126,457.574554 
	C179.825485,456.583740 178.518860,455.592957 177.125519,454.288513 
	C177.436035,452.703217 177.833282,451.431580 178.384003,449.819916 
z"/>
<path fill="#CECDCD" opacity="1.000000" stroke="none" 
	d="
M554.353882,305.772064 
	C555.833435,308.723053 557.173767,312.062164 558.449341,315.762207 
	C556.994568,312.802155 555.604553,309.481201 554.353882,305.772064 
z"/>
<path fill="#CECDCD" opacity="1.000000" stroke="none" 
	d="
M534.005127,264.212067 
	C532.781067,264.501556 531.465698,264.464355 529.959900,264.738861 
	C529.219727,264.435333 528.669922,263.820129 528.120178,263.204926 
	C528.753540,262.867920 529.484741,262.140442 530.001343,262.269806 
	C531.355469,262.608795 532.616028,263.321564 534.005127,264.212067 
z"/>
<path fill="#CECDCD" opacity="1.000000" stroke="none" 
	d="
M564.617065,346.244934 
	C565.109253,347.489868 565.351074,348.951874 565.443665,350.769714 
	C564.985168,349.571045 564.675964,348.016541 564.617065,346.244934 
z"/>
<path fill="#BCBBBB" opacity="1.000000" stroke="none" 
	d="
M175.570496,441.237457 
	C176.354935,442.516998 176.924667,444.003387 177.434937,445.833618 
	C176.702240,444.599701 176.028992,443.022034 175.570496,441.237457 
z"/>
<path fill="#CECDCD" opacity="1.000000" stroke="none" 
	d="
M558.680664,318.210327 
	C559.488647,319.486664 560.062317,320.955872 560.570618,322.765869 
	C559.818909,321.538879 559.132629,319.971069 558.680664,318.210327 
z"/>
<path fill="#BCBBBB" opacity="1.000000" stroke="none" 
	d="
M175.167786,430.410461 
	C174.860001,430.780090 174.583084,430.834290 173.885193,430.932861 
	C173.277359,430.263000 173.090485,429.548828 172.903595,428.834656 
	C173.668610,429.254791 174.433624,429.674896 175.167786,430.410461 
z"/>
<path fill="#CECDCD" opacity="1.000000" stroke="none" 
	d="
M565.370789,359.907318 
	C565.775818,360.856720 565.865173,361.790192 566.095947,364.201019 
	C564.806335,362.287109 564.288452,361.518463 563.789917,360.428040 
	C564.224609,360.034637 564.639832,359.963013 565.370789,359.907318 
z"/>
<path fill="#CECDCD" opacity="1.000000" stroke="none" 
	d="
M561.530029,328.228455 
	C562.053711,328.858856 562.353333,329.667389 562.552124,330.794983 
	C562.069580,330.211517 561.687805,329.309021 561.530029,328.228455 
z"/>
<path fill="#BCBBBB" opacity="1.000000" stroke="none" 
	d="
M173.553879,433.213959 
	C174.076126,433.856781 174.376572,434.680359 174.585846,435.829529 
	C174.107162,435.234985 173.719620,434.314850 173.553879,433.213959 
z"/>
<path fill="#CECDCD" opacity="1.000000" stroke="none" 
	d="
M563.651611,339.188843 
	C564.140137,339.851898 564.394043,340.680054 564.508667,341.814453 
	C564.051941,341.198456 563.734436,340.276215 563.651611,339.188843 
z"/>
<path fill="#CECDCD" opacity="1.000000" stroke="none" 
	d="
M562.598450,333.208557 
	C563.117493,333.852295 563.406311,334.669464 563.575806,335.799133 
	C563.093750,335.201752 562.730957,334.291870 562.598450,333.208557 
z"/>
<path fill="#CECDCD" opacity="1.000000" stroke="none" 
	d="
M539.973022,266.348297 
	C539.301025,266.480133 538.526611,266.270111 537.546143,265.828491 
	C538.183594,265.733429 539.027161,265.869934 539.973022,266.348297 
z"/>
<path fill="#FBFAFA" opacity="1.000000" stroke="none" 
	d="
M127.599213,443.403992 
	C127.772621,443.366577 127.957947,443.291840 128.143265,443.217072 
	C128.076859,443.208282 128.010437,443.199493 127.809189,443.297577 
	C127.674339,443.404480 127.611122,443.366638 127.599213,443.403992 
z"/>
<path fill="#F3F2F2" opacity="1.000000" stroke="none" 
	d="
M421.439514,293.565155 
	C423.208038,297.313507 424.795227,300.738800 426.382385,304.164124 
	C426.089264,304.655365 425.796112,305.146606 425.502991,305.637817 
	C414.244110,302.594086 402.855652,299.947205 391.783661,296.331268 
	C386.614105,294.642975 386.412720,290.984131 390.390686,287.223816 
	C393.884735,283.920929 397.471832,280.693756 401.228210,277.696869 
	C405.964691,273.918060 407.762756,273.962708 411.575378,278.801270 
	C415.151764,283.340057 418.057343,288.407410 421.439514,293.565155 
z"/>
<path fill="#F4F3F3" opacity="1.000000" stroke="none" 
	d="
M243.108322,282.117615 
	C244.049789,280.922943 244.737030,279.978821 245.512512,279.113739 
	C249.702133,274.439972 251.598175,274.121918 256.389221,277.910706 
	C260.292511,280.997437 263.889435,284.468475 267.695374,287.682495 
	C270.981964,290.457947 270.354065,293.053772 267.502960,295.588715 
	C266.769653,296.240692 265.904083,296.917755 264.986938,297.162781 
	C254.172501,300.051849 243.336655,302.860901 231.249268,306.019531 
	C233.861572,296.207458 238.287827,289.262360 243.108322,282.117615 
z"/>
</svg>