<svg width="437" height="319" viewBox="0 0 437 319" fill="none" xmlns="http://www.w3.org/2000/svg">
<path d="M112.503 177.003C98.8188 177.682 85.6422 180.562 74.2334 188.378C49.9956 204.982 41.762 228.797 45.2233 257.069C51.2677 306.437 103.355 332.555 148.824 310.656C168.571 301.146 179.951 284.088 188.563 264.828C198.179 243.324 203.749 220.488 210.402 198.003C212.172 192.021 212.511 186.366 210.497 180.524C208.816 175.647 207.447 170.64 205.435 165.905C180.555 107.365 140.667 61.1639 88.7511 25.0711C71.5446 13.109 52.9633 3.96265 31.9093 0.520546C13.8179 -2.43722 0.996923 7.38273 0.094121 25.6793C-0.20904 31.8229 0.229741 37.9691 1.26859 44.0722C5.88105 71.1688 13.7581 97.1894 27.5091 121.118C39.6112 142.177 56.8465 156.84 81.416 161.113C98.016 164 114.869 163.981 131.665 164.384C136.694 164.505 140.328 167.006 139.921 170.435C139.373 175.057 135.867 176.073 131.866 176.057C125.703 176.033 119.539 175.946 112.503 177.003ZM390.845 232.231C389.738 223.842 386.812 216.077 382.339 208.958C369.32 188.234 349.862 178.752 326.023 177.048C318.384 176.502 310.756 175.81 303.082 176.049C299.554 176.159 297.285 174.433 296.841 170.942C296.405 167.515 298.616 165.637 301.607 164.903C303.67 164.397 305.885 164.457 308.037 164.378C324.149 163.78 340.348 163.988 356.25 160.934C380.372 156.301 397.214 141.714 408.752 120.69C424.066 92.7864 433.332 62.8442 436.44 31.2062C438.345 11.8237 425.489 -2.80041 404.8 0.710304C389.427 3.31895 375.307 8.86509 362.028 16.6581C326.168 37.7038 296.795 66.0092 271.506 98.7212C252.967 122.704 237.287 148.324 227.589 177.295C225.186 184.474 224.478 191.402 226.991 198.753C229.19 205.186 230.519 211.911 232.387 218.463C238.642 240.407 244.553 262.542 257.267 281.898C274.935 308.797 299.602 321.691 332.035 317.4C372.899 311.993 397.467 275.505 390.845 232.231ZM253.384 70.6526C259.919 60.5563 267.458 51.255 275.746 42.5586C277.295 40.9336 278.639 39.0794 281.652 40.0163C285.606 41.2459 288.665 39.6698 289.536 35.4411C290.243 32.0062 288.397 29.3484 285.22 28.5028C281.029 27.3869 278.472 30.0677 277.585 33.7961C276.99 36.2956 275.544 37.8635 273.967 39.5649C251.343 63.9814 234.755 91.9889 224.226 123.557C223.359 126.157 221.766 128.925 224.056 132.064C231.246 110.564 240.466 90.1125 253.384 70.6526ZM181.671 61.5548C176.122 54.4832 170.795 47.2219 164.474 40.7968C162.128 38.4128 160.056 36.1604 159.361 32.5375C158.751 29.354 155.916 27.5375 152.466 28.4543C149.276 29.3021 147.113 31.6628 147.555 35.0624C147.985 38.3698 150.589 41.0173 153.793 40.1516C159.107 38.7155 161.391 42.1092 164.097 45.1065C186.627 70.0658 203.172 98.4098 212.425 130.856C212.624 131.555 212.983 132.035 213.75 132.107C217.764 126.412 202.428 92.509 181.671 61.5548Z" fill="white"/>.554 176.159 297.285 174.433 296.841 170.942C296.405 167.515 298.616 165.637 301.607 164.903C303.67 164.397 305.885 164.457 308.037 164.378C324.149 163.78 340.348 163.988 356.25 160.934C380.372 156.301 397.214 141.714 408.752 120.69C424.066 92.7864 433.332 62.8442 436.44 31.2062C438.345 11.8237 425.489 -2.80041 404.8 0.710304C389.427 3.31895 375.307 8.86509 362.028 16.6581C326.168 37.7038 296.795 66.0092 271.506 98.7212C252.967 122.704 237.287 148.324 227.589 177.295C225.186 184.474 224.478 191.402 226.991 198.753C229.19 205.186 230.519 211.911 232.387 218.463C238.642 240.407 244.553 262.542 257.267 281.898C274.935 308.797 299.602 321.691 332.035 317.4C372.899 311.993 397.467 275.505 390.845 232.231ZM253.384 70.6526C259.919 60.5563 267.458 51.255 275.746 42.5586C277.295 40.9336 278.639 39.0794 281.652 40.0163C285.606 41.2459 288.665 39.6698 289.536 35.4411C290.243 32.0062 288.397 29.3484 285.22 28.5028C281.029 27.3869 278.472 30.0677 277.585 33.7961C276.99 36.2956 275.544 37.8635 273.967 39.5649C251.343 63.9814 234.755 91.9889 224.226 123.557C223.359 126.157 221.766 128.925 224.056 132.064C231.246 110.564 240.466 90.1125 253.384 70.6526ZM181.671 61.5548C176.122 54.4832 170.795 47.2219 164.474 40.7968C162.128 38.4128 160.056 36.1604 159.361 32.5375C158.751 29.354 155.916 27.5375 152.466 28.4543C149.276 29.3021 147.113 31.6628 147.555 35.0624C147.985 38.3698 150.589 41.0173 153.793 40.1516C159.107 38.7155 161.391 42.1092 164.097 45.1065C186.627 70.0658 203.172 98.4098 212.425 130.856C212.624 131.555 212.983 132.035 213.75 132.107C217.764 126.412 202.428 92.509 181.671 61.5548Z" fill="black"/>
</svg>
