<svg xmlns="http://www.w3.org/2000/svg" width="856" height="628" fill="none"><path stroke="#E5E7EB" stroke-width="2" d="M8 1h156a7 7 0 0 1 7 7v156a7 7 0 0 1-7 7H8a7 7 0 0 1-7-7V8a7 7 0 0 1 7-7z"/><g clip-path="url(#a)"><path fill="#2684FF" d="M112.185 38.856H84.667A12.422 12.422 0 0 0 97.09 51.278h5.069v4.894c.005 6.854 5.56 12.41 12.414 12.414V41.243a2.387 2.387 0 0 0-2.387-2.387z"/><path fill="url(#b)" d="M98.57 52.567H71.051c.004 6.854 5.56 12.41 12.413 12.414h5.07v4.91c.008 6.854 5.567 12.406 12.422 12.406V54.955a2.388 2.388 0 0 0-2.388-2.388z"/><path fill="url(#c)" d="M84.946 66.27H57.428c0 6.86 5.562 12.422 12.422 12.422h5.085v4.894c.004 6.848 5.55 12.401 12.398 12.414V68.657a2.387 2.387 0 0 0-2.387-2.387z"/></g><path fill="#121826" d="M75.673 120.455h2.614v10.227c-.005.937-.204 1.745-.597 2.422a3.984 3.984 0 0 1-1.647 1.555c-.701.36-1.518.54-2.45.54-.853 0-1.62-.152-2.302-.455a3.745 3.745 0 0 1-1.612-1.363c-.398-.602-.597-1.35-.597-2.245h2.621c.005.393.09.732.256 1.016.17.284.405.502.703.653.298.152.641.228 1.03.228.421 0 .779-.088 1.072-.263.294-.18.516-.445.668-.796.156-.35.237-.781.241-1.292v-10.227zM80.532 135v-10.909h2.571V135h-2.571zm1.293-12.457a1.5 1.5 0 0 1-1.052-.405 1.306 1.306 0 0 1-.44-.987c0-.389.147-.718.44-.988a1.488 1.488 0 0 1 1.052-.412c.412 0 .762.138 1.05.412.294.27.441.599.441.988 0 .383-.147.712-.44.987-.29.27-.64.405-1.051.405zM85.247 135v-10.909h2.493v1.818h.113c.2-.63.54-1.115 1.023-1.456a2.812 2.812 0 0 1 1.67-.518c.141 0 .3.007.475.021.18.009.329.026.447.05v2.365a2.731 2.731 0 0 0-.518-.1 4.788 4.788 0 0 0-.675-.049c-.469 0-.89.101-1.264.305a2.24 2.24 0 0 0-.874.831c-.213.355-.32.765-.32 1.229V135h-2.57zm10.373.22c-.69 0-1.314-.123-1.868-.369a3.046 3.046 0 0 1-1.306-1.108c-.318-.488-.476-1.089-.476-1.804 0-.616.114-1.125.34-1.527.228-.403.538-.724.931-.966a4.704 4.704 0 0 1 1.328-.547c.497-.128 1.011-.22 1.541-.277.64-.066 1.158-.125 1.556-.177.398-.057.686-.142.866-.256.185-.118.277-.301.277-.547v-.043c0-.535-.158-.949-.475-1.242-.318-.294-.775-.441-1.371-.441-.63 0-1.13.138-1.499.412-.364.275-.61.599-.739.973l-2.4-.341c.19-.663.502-1.217.937-1.662.436-.45.969-.786 1.598-1.008.63-.228 1.326-.341 2.088-.341.526 0 1.05.061 1.57.185.52.123.997.326 1.428.61.431.28.776.661 1.037 1.144.265.483.397 1.086.397 1.811V135h-2.471v-1.499h-.086a3.139 3.139 0 0 1-.66.853 3.19 3.19 0 0 1-1.058.632c-.422.156-.916.234-1.485.234zm.668-1.889c.516 0 .963-.102 1.342-.305.38-.209.67-.483.874-.824a2.1 2.1 0 0 0 .312-1.115v-1.286c-.08.066-.217.128-.412.185-.189.057-.402.106-.639.149s-.47.08-.703.114l-.603.085a4.506 4.506 0 0 0-1.03.255 1.718 1.718 0 0 0-.718.498c-.175.208-.263.478-.263.809 0 .474.173.831.519 1.073.346.241.786.362 1.321.362z"/><path stroke="#E5E7EB" stroke-width="2" d="M236 1h156a7 7 0 0 1 7 7v156a7 7 0 0 1-7 7H236a7 7 0 0 1-7-7V8a7 7 0 0 1 7-7z"/><g clip-path="url(#d)"><path fill="url(#e)" d="m290.704 78.916 8.708-6.673c4.626 6.038 9.545 8.824 15.015 8.824 5.47 0 10.219-2.752 14.639-8.743l8.832 6.511c-6.375 8.64-14.298 13.206-23.471 13.206s-17.144-4.536-23.723-13.125z"/><path fill="url(#f)" d="m314.397 49.92-15.501 13.359-7.163-8.312 22.698-19.562 22.52 19.575-7.198 8.282-15.356-13.342z"/></g><path fill="#121826" d="M291.385 125.362h-2.656a3.322 3.322 0 0 0-.419-1.157 3.125 3.125 0 0 0-.76-.867 3.178 3.178 0 0 0-1.037-.533 4.052 4.052 0 0 0-1.243-.184c-.791 0-1.492.199-2.102.596-.611.393-1.089.971-1.435 1.733-.346.758-.519 1.684-.519 2.777 0 1.113.173 2.05.519 2.813.35.757.829 1.33 1.435 1.719.61.383 1.309.575 2.095.575.435 0 .843-.057 1.221-.171a3.336 3.336 0 0 0 1.03-.518 3.177 3.177 0 0 0 1.215-1.975l2.656.015a5.72 5.72 0 0 1-.646 1.946 5.75 5.75 0 0 1-1.286 1.605c-.53.459-1.15.819-1.861 1.079-.71.256-1.498.384-2.365.384-1.278 0-2.419-.296-3.423-.888-1.004-.592-1.795-1.446-2.372-2.564-.578-1.117-.867-2.457-.867-4.02 0-1.567.292-2.907.874-4.02.582-1.117 1.375-1.972 2.379-2.564 1.004-.591 2.14-.887 3.409-.887.81 0 1.563.113 2.259.341a5.792 5.792 0 0 1 1.861 1.001 5.34 5.34 0 0 1 1.342 1.605c.355.63.587 1.35.696 2.159zm4.37-4.907V135h-2.571v-14.545h2.571zM297.899 135v-10.909h2.571V135h-2.571zm1.293-12.457c-.407 0-.758-.135-1.051-.405a1.305 1.305 0 0 1-.441-.987c0-.389.147-.718.441-.988a1.487 1.487 0 0 1 1.051-.412c.412 0 .762.138 1.051.412.293.27.44.599.44.988 0 .383-.147.712-.44.987-.289.27-.639.405-1.051.405zm8.181 12.67c-1.09 0-2.025-.239-2.806-.717a4.797 4.797 0 0 1-1.797-1.982c-.416-.847-.625-1.823-.625-2.926 0-1.108.213-2.086.639-2.933.427-.852 1.028-1.515 1.804-1.989.782-.478 1.705-.717 2.77-.717.886 0 1.669.163 2.351.49a4.013 4.013 0 0 1 1.641 1.371c.407.587.639 1.273.696 2.059h-2.458a2.35 2.35 0 0 0-.71-1.314c-.369-.355-.864-.532-1.484-.532-.526 0-.987.142-1.385.426-.398.279-.708.682-.931 1.207-.217.526-.326 1.156-.326 1.889 0 .744.109 1.383.326 1.918.218.53.524.94.917 1.229.397.284.864.426 1.399.426a2.33 2.33 0 0 0 1.015-.213c.303-.147.557-.358.76-.632.204-.275.344-.609.419-1.002h2.458c-.062.772-.289 1.456-.682 2.053a4.035 4.035 0 0 1-1.605 1.392c-.677.331-1.473.497-2.386.497zm8.628-3.636-.007-3.104h.412l3.92-4.382h3.004l-4.822 5.369h-.533l-1.974 2.117zM313.657 135v-14.545h2.571V135h-2.571zm6.847 0-3.552-4.964 1.733-1.812 4.894 6.776h-3.075zm13.322-14.545h2.635v9.502c0 1.042-.246 1.958-.738 2.749-.488.791-1.175 1.409-2.06 1.854-.885.44-1.92.66-3.104.66-1.188 0-2.225-.22-3.11-.66-.886-.445-1.572-1.063-2.06-1.854-.488-.791-.732-1.707-.732-2.749v-9.502h2.635v9.282c0 .606.133 1.146.398 1.62a2.9 2.9 0 0 0 1.136 1.115c.488.265 1.066.397 1.733.397.668 0 1.246-.132 1.733-.397.493-.27.871-.642 1.137-1.115.265-.474.397-1.014.397-1.62v-9.282zm4.886 18.636v-15h2.528v1.804h.149c.133-.265.32-.547.561-.845a2.98 2.98 0 0 1 .98-.774c.412-.218.938-.327 1.577-.327.843 0 1.603.215 2.28.646.682.426 1.222 1.058 1.619 1.896.403.834.604 1.857.604 3.069 0 1.198-.197 2.216-.59 3.054-.393.838-.928 1.477-1.605 1.917-.677.441-1.444.661-2.301.661-.625 0-1.143-.104-1.555-.313a3.156 3.156 0 0 1-.995-.753 4.916 4.916 0 0 1-.575-.845h-.106v5.81h-2.571zm2.521-9.546c0 .706.099 1.324.298 1.854.204.53.495.945.874 1.243.383.294.847.44 1.392.44.568 0 1.044-.151 1.427-.454.384-.308.673-.727.867-1.257.199-.535.298-1.144.298-1.826 0-.677-.097-1.278-.291-1.804-.194-.525-.483-.937-.866-1.235-.384-.299-.862-.448-1.435-.448-.549 0-1.016.145-1.399.433-.384.289-.675.694-.874 1.215-.194.521-.291 1.134-.291 1.839z"/><path stroke="#E5E7EB" stroke-width="2" d="M464 1h156a7 7 0 0 1 7 7v156a7 7 0 0 1-7 7H464a7 7 0 0 1-7-7V8a7 7 0 0 1 7-7z"/><path fill="url(#g)" d="M512.296 80.183a238.548 238.548 0 0 0-1.996 3.33 2.03 2.03 0 0 0-.25.725 2.042 2.042 0 0 0 .917 1.993l13.248 8.167a2.022 2.022 0 0 0 2.281-.093 2.02 2.02 0 0 0 .537-.594c.534-.89 1.211-2.041 1.938-3.27 5.251-8.612 10.573-7.557 20.078-3.038l13.14 6.23a2.034 2.034 0 0 0 2.741-1.016l6.308-14.223a2.013 2.013 0 0 0 .052-1.526 2.08 2.08 0 0 0-.399-.667 2.061 2.061 0 0 0-.622-.47c-2.771-1.304-8.284-3.87-13.226-6.287-17.974-8.672-33.141-8.1-44.747 10.74z"/><path fill="url(#h)" d="M571.695 47.854a150.73 150.73 0 0 0 1.996-3.327 2.049 2.049 0 0 0 .215-1.524 2.05 2.05 0 0 0-.922-1.234l-13.228-8.167a2.028 2.028 0 0 0-1.554-.247 2.07 2.07 0 0 0-.727.34c-.217.16-.399.362-.539.594-.522.89-1.212 2.041-1.939 3.27-5.271 8.652-10.542 7.597-20.058 3.078l-13.128-6.233a2.064 2.064 0 0 0-1.576-.09c-.255.09-.49.23-.689.413a2.02 2.02 0 0 0-.478.647l-6.307 14.262a2.045 2.045 0 0 0 .344 2.2c.175.195.388.355.625.47 2.78 1.307 8.294 3.87 13.225 6.29 17.927 8.67 33.141 8.1 44.74-10.742z"/><path fill="#121826" d="M501.885 125.362h-2.656a3.322 3.322 0 0 0-.419-1.157 3.125 3.125 0 0 0-.76-.867 3.178 3.178 0 0 0-1.037-.533 4.052 4.052 0 0 0-1.243-.184c-.791 0-1.492.199-2.102.596-.611.393-1.089.971-1.435 1.733-.346.758-.519 1.684-.519 2.777 0 1.113.173 2.05.519 2.813.35.757.829 1.33 1.435 1.719.61.383 1.309.575 2.095.575.435 0 .843-.057 1.221-.171a3.336 3.336 0 0 0 1.03-.518 3.177 3.177 0 0 0 1.215-1.975l2.656.015a5.72 5.72 0 0 1-.646 1.946 5.75 5.75 0 0 1-1.286 1.605c-.53.459-1.15.819-1.861 1.079-.71.256-1.498.384-2.365.384-1.278 0-2.419-.296-3.423-.888-1.004-.592-1.795-1.446-2.372-2.564-.578-1.117-.867-2.457-.867-4.02 0-1.567.292-2.907.874-4.02.582-1.117 1.375-1.972 2.379-2.564 1.004-.591 2.14-.887 3.409-.887.81 0 1.563.113 2.259.341a5.792 5.792 0 0 1 1.861 1.001 5.34 5.34 0 0 1 1.342 1.605c.355.63.587 1.35.696 2.159zm6.558 9.851c-1.066 0-1.989-.234-2.77-.703a4.782 4.782 0 0 1-1.818-1.967c-.426-.843-.639-1.828-.639-2.955s.213-2.114.639-2.962a4.77 4.77 0 0 1 1.818-1.974c.781-.469 1.704-.703 2.77-.703 1.065 0 1.988.234 2.77.703a4.722 4.722 0 0 1 1.811 1.974c.431.848.646 1.835.646 2.962 0 1.127-.215 2.112-.646 2.955a4.734 4.734 0 0 1-1.811 1.967c-.782.469-1.705.703-2.77.703zm.014-2.06c.578 0 1.061-.158 1.449-.475.388-.322.677-.753.866-1.293a5.28 5.28 0 0 0 .292-1.804 5.3 5.3 0 0 0-.292-1.811c-.189-.545-.478-.978-.866-1.3-.388-.322-.871-.483-1.449-.483-.592 0-1.084.161-1.477.483-.388.322-.68.755-.874 1.3a5.453 5.453 0 0 0-.284 1.811c0 .663.095 1.264.284 1.804.194.54.486.971.874 1.293.393.317.885.475 1.477.475zm9.466-4.545V135h-2.571v-10.909h2.458v1.854h.128a3.108 3.108 0 0 1 1.2-1.456c.554-.36 1.238-.54 2.052-.54.753 0 1.409.161 1.968.483.563.322.999.788 1.306 1.399.313.611.467 1.352.462 2.223V135h-2.571v-6.548c0-.729-.189-1.3-.568-1.712-.374-.412-.893-.618-1.555-.618-.45 0-.85.1-1.201.298a2.077 2.077 0 0 0-.817.846c-.194.369-.291.816-.291 1.342zm14.642-4.517v1.989h-6.449v-1.989h6.449zM527.729 135v-11.939c0-.734.151-1.345.454-1.832.308-.488.72-.853 1.236-1.094a3.998 3.998 0 0 1 1.719-.362c.445 0 .84.035 1.186.106s.601.135.767.192l-.511 1.989a4.496 4.496 0 0 0-.412-.1 2.489 2.489 0 0 0-.554-.057c-.479 0-.817.116-1.016.348-.194.228-.291.554-.291.981V135h-2.578zm8.921-14.545V135h-2.571v-14.545h2.571zm9.097 9.957v-6.321h2.571V135h-2.493v-1.939h-.114a3.285 3.285 0 0 1-1.214 1.499c-.559.388-1.248.582-2.067.582-.715 0-1.347-.159-1.896-.476-.545-.322-.971-.788-1.279-1.399-.307-.615-.461-1.359-.461-2.23v-6.946h2.571v6.548c0 .691.189 1.241.568 1.648.379.407.876.611 1.491.611.379 0 .746-.093 1.101-.277.355-.185.647-.46.874-.824.232-.369.348-.831.348-1.385zm9.544 4.801c-1.094 0-2.038-.227-2.834-.682a4.62 4.62 0 0 1-1.825-1.946c-.426-.843-.639-1.835-.639-2.976 0-1.122.213-2.107.639-2.954.431-.852 1.032-1.515 1.804-1.989.772-.478 1.679-.717 2.72-.717.673 0 1.307.109 1.904.327a4.307 4.307 0 0 1 1.591.994c.464.45.828 1.023 1.093 1.719.265.691.398 1.515.398 2.471v.789H551.2v-1.733h6.478a2.77 2.77 0 0 0-.32-1.314 2.314 2.314 0 0 0-.874-.916c-.369-.223-.8-.334-1.292-.334-.526 0-.987.128-1.385.383a2.647 2.647 0 0 0-.931.995 2.859 2.859 0 0 0-.333 1.342v1.513c0 .634.116 1.179.348 1.633.232.45.556.796.973 1.037.416.237.904.355 1.463.355.374 0 .712-.052 1.015-.156.303-.109.566-.268.789-.476.222-.208.39-.466.504-.774l2.401.27a3.755 3.755 0 0 1-.867 1.662c-.421.469-.961.833-1.619 1.094-.658.255-1.411.383-2.259.383zm9.097-6.605V135h-2.571v-10.909h2.458v1.854h.127a3.11 3.11 0 0 1 1.201-1.456c.554-.36 1.238-.54 2.052-.54.753 0 1.409.161 1.968.483.563.322.999.788 1.306 1.399.313.611.467 1.352.462 2.223V135h-2.571v-6.548c0-.729-.189-1.3-.568-1.712-.374-.412-.893-.618-1.556-.618-.449 0-.85.1-1.2.298a2.07 2.07 0 0 0-.817.846c-.194.369-.291.816-.291 1.342zm13.875 6.605c-1.089 0-2.024-.239-2.805-.717a4.783 4.783 0 0 1-1.797-1.982c-.417-.847-.625-1.823-.625-2.926 0-1.108.213-2.086.639-2.933a4.779 4.779 0 0 1 1.804-1.989c.781-.478 1.705-.717 2.77-.717.885 0 1.669.163 2.351.49a4.016 4.016 0 0 1 1.64 1.371c.408.587.64 1.273.696 2.059h-2.457a2.35 2.35 0 0 0-.71-1.314c-.369-.355-.864-.532-1.485-.532-.525 0-.987.142-1.384.426-.398.279-.708.682-.931 1.207-.218.526-.327 1.156-.327 1.889 0 .744.109 1.383.327 1.918.218.53.523.94.916 1.229.398.284.864.426 1.399.426.379 0 .718-.071 1.016-.213.303-.147.556-.358.76-.632a2.43 2.43 0 0 0 .419-1.002h2.457c-.061.772-.288 1.456-.681 2.053a4.035 4.035 0 0 1-1.605 1.392c-.678.331-1.473.497-2.387.497zm11.114 0c-1.094 0-2.038-.227-2.834-.682a4.62 4.62 0 0 1-1.825-1.946c-.426-.843-.639-1.835-.639-2.976 0-1.122.213-2.107.639-2.954.431-.852 1.032-1.515 1.804-1.989.772-.478 1.679-.717 2.72-.717.673 0 1.307.109 1.904.327a4.307 4.307 0 0 1 1.591.994c.464.45.828 1.023 1.093 1.719.265.691.398 1.515.398 2.471v.789h-8.942v-1.733h6.477a2.758 2.758 0 0 0-.319-1.314 2.314 2.314 0 0 0-.874-.916c-.369-.223-.8-.334-1.292-.334-.526 0-.988.128-1.385.383a2.647 2.647 0 0 0-.931.995 2.859 2.859 0 0 0-.333 1.342v1.513c0 .634.116 1.179.348 1.633.232.45.556.796.973 1.037.416.237.904.355 1.463.355.374 0 .712-.052 1.015-.156.303-.109.566-.268.789-.476.222-.208.39-.466.504-.774l2.4.27a3.743 3.743 0 0 1-.866 1.662c-.421.469-.961.833-1.619 1.094-.658.255-1.411.383-2.259.383z"/><path stroke="#E5E7EB" stroke-width="2" d="M692 1h156a7 7 0 0 1 7 7v156a7 7 0 0 1-7 7H692a7 7 0 0 1-7-7V8a7 7 0 0 1 7-7z"/><g clip-path="url(#i)"><path fill="url(#j)" d="M789.749 66.221c-8.251 0-14.939 6.688-14.939 14.938s6.688 14.94 14.939 14.94c8.25 0 14.938-6.69 14.938-14.94s-6.688-14.938-14.938-14.938zm-38.811 0C742.688 66.224 736 72.91 736 81.16s6.688 14.939 14.938 14.939c8.251 0 14.939-6.689 14.939-14.939s-6.688-14.937-14.94-14.937h.001zm34.344-18.673c0 8.25-6.688 14.94-14.938 14.94-8.251 0-14.939-6.69-14.939-14.94s6.688-14.938 14.939-14.938c8.25 0 14.937 6.688 14.937 14.938h.001z"/></g><path fill="#121826" d="M743.803 135h-2.813l5.121-14.545h3.253L754.491 135h-2.812l-3.885-11.562h-.114L743.803 135zm.092-5.703h7.67v2.116h-7.67v-2.116zm20.345-2.323-2.344.256a1.88 1.88 0 0 0-.348-.668 1.728 1.728 0 0 0-.653-.504c-.275-.128-.611-.192-1.009-.192-.535 0-.984.116-1.349.348-.36.232-.537.533-.533.902a.949.949 0 0 0 .348.775c.242.198.639.362 1.193.49l1.861.397c1.032.223 1.799.576 2.301 1.059.507.483.763 1.115.767 1.896a2.963 2.963 0 0 1-.603 1.818c-.393.521-.94.928-1.641 1.222-.701.293-1.506.44-2.415.44-1.335 0-2.41-.279-3.224-.838-.814-.563-1.3-1.347-1.456-2.351l2.507-.241c.114.492.355.864.724 1.115.37.251.85.376 1.442.376.611 0 1.101-.125 1.47-.376.374-.251.561-.561.561-.931 0-.312-.12-.57-.362-.774-.236-.203-.606-.36-1.108-.469l-1.86-.39c-1.047-.218-1.821-.585-2.323-1.101-.502-.521-.75-1.179-.746-1.974-.004-.673.178-1.255.547-1.748.374-.497.893-.88 1.556-1.15.667-.275 1.437-.412 2.308-.412 1.278 0 2.284.272 3.018.817.739.544 1.196 1.28 1.371 2.208zm4.994 8.246c-.692 0-1.314-.123-1.868-.369a3.049 3.049 0 0 1-1.307-1.108c-.317-.488-.476-1.089-.476-1.804 0-.616.114-1.125.341-1.527.227-.403.537-.724.93-.966a4.703 4.703 0 0 1 1.329-.547 10.78 10.78 0 0 1 1.541-.277 60.362 60.362 0 0 0 1.555-.177c.398-.057.687-.142.867-.256.184-.118.277-.301.277-.547v-.043c0-.535-.159-.949-.476-1.242-.318-.294-.774-.441-1.371-.441-.63 0-1.129.138-1.499.412-.364.275-.61.599-.738.973l-2.401-.341c.19-.663.502-1.217.938-1.662.435-.45.968-.786 1.598-1.008.629-.228 1.325-.341 2.088-.341.525 0 1.049.061 1.569.185.521.123.997.326 1.428.61.431.28.776.661 1.037 1.144.265.483.398 1.086.398 1.811V135h-2.472v-1.499h-.085a3.139 3.139 0 0 1-.661.853 3.18 3.18 0 0 1-1.058.632c-.421.156-.916.234-1.484.234zm.667-1.889c.516 0 .964-.102 1.343-.305.378-.209.67-.483.873-.824.209-.341.313-.713.313-1.115v-1.286c-.081.066-.218.128-.412.185a5.95 5.95 0 0 1-.639.149c-.237.043-.472.08-.704.114l-.603.085a4.5 4.5 0 0 0-1.03.255 1.716 1.716 0 0 0-.717.498c-.176.208-.263.478-.263.809 0 .474.173.831.518 1.073.346.241.786.362 1.321.362zm9.749-4.723V135h-2.571v-10.909h2.457v1.854h.128a3.114 3.114 0 0 1 1.2-1.456c.554-.36 1.239-.54 2.053-.54.753 0 1.409.161 1.967.483a3.25 3.25 0 0 1 1.307 1.399c.313.611.466 1.352.462 2.223V135h-2.571v-6.548c0-.729-.19-1.3-.569-1.712-.374-.412-.892-.618-1.555-.618-.45 0-.85.1-1.2.298a2.07 2.07 0 0 0-.817.846c-.194.369-.291.816-.291 1.342zm12.256 6.612c-.692 0-1.314-.123-1.868-.369a3.043 3.043 0 0 1-1.307-1.108c-.317-.488-.476-1.089-.476-1.804 0-.616.114-1.125.341-1.527.227-.403.537-.724.93-.966a4.708 4.708 0 0 1 1.328-.547c.498-.128 1.011-.22 1.542-.277a60.362 60.362 0 0 0 1.555-.177c.398-.057.687-.142.866-.256.185-.118.277-.301.277-.547v-.043c0-.535-.158-.949-.475-1.242-.318-.294-.775-.441-1.371-.441-.63 0-1.129.138-1.499.412-.364.275-.611.599-.738.973l-2.401-.341c.189-.663.502-1.217.938-1.662.435-.45.968-.786 1.598-1.008.629-.228 1.325-.341 2.088-.341.525 0 1.048.061 1.569.185.521.123.997.326 1.428.61.431.28.776.661 1.037 1.144.265.483.397 1.086.397 1.811V135h-2.471v-1.499h-.085a3.159 3.159 0 0 1-.661.853 3.18 3.18 0 0 1-1.058.632c-.421.156-.916.234-1.484.234zm.667-1.889c.516 0 .964-.102 1.342-.305.379-.209.67-.483.874-.824.208-.341.313-.713.313-1.115v-1.286c-.081.066-.218.128-.412.185-.19.057-.403.106-.64.149-.236.043-.471.08-.703.114l-.603.085a4.5 4.5 0 0 0-1.03.255 1.726 1.726 0 0 0-.718.498c-.175.208-.262.478-.262.809 0 .474.172.831.518 1.073.346.241.786.362 1.321.362z"/><path stroke="#E5E7EB" stroke-width="2" d="M8 229h156a7 7 0 0 1 7 7v156a7 7 0 0 1-7 7H8a7 7 0 0 1-7-7V236a7 7 0 0 1 7-7z"/><g clip-path="url(#k)"><path fill="url(#l)" d="M111.75 260h-51.5a6.25 6.25 0 0 0-6.25 6.25v51.5a6.25 6.25 0 0 0 6.25 6.25h51.5a6.25 6.25 0 0 0 6.25-6.25v-51.5a6.25 6.25 0 0 0-6.25-6.25z"/><path fill="#fff" d="M106.68 277.997H93.16a3 3 0 0 0-3 3v22a3 3 0 0 0 3 3h13.52a3 3 0 0 0 3-3v-22a3 3 0 0 0-3-3zm-27.84-7.987H65.32a3 3 0 0 0-3 3v38a3 3 0 0 0 3 3h13.52a3 3 0 0 0 3-3v-38a3 3 0 0 0-3-3z"/></g><path fill="#121826" d="M60.795 350.663v-2.208h11.606v2.208h-4.496V363H65.29v-12.337h-4.495zM72.891 363v-10.909h2.493v1.818h.114c.199-.63.54-1.115 1.023-1.456a2.812 2.812 0 0 1 1.669-.518 6 6 0 0 1 .475.021c.18.009.33.026.448.05v2.365a2.731 2.731 0 0 0-.519-.1 4.79 4.79 0 0 0-.674-.049c-.469 0-.89.101-1.264.305-.37.199-.661.476-.874.831-.213.355-.32.765-.32 1.229V363h-2.57zm11.81.213c-1.093 0-2.038-.227-2.833-.682a4.616 4.616 0 0 1-1.826-1.946c-.426-.843-.639-1.835-.639-2.976 0-1.122.213-2.107.64-2.954.43-.852 1.031-1.515 1.803-1.989.772-.478 1.679-.717 2.72-.717.673 0 1.307.109 1.904.327a4.298 4.298 0 0 1 1.59.994c.465.45.83 1.023 1.094 1.719.266.691.398 1.515.398 2.471v.789H80.61v-1.733h6.478a2.763 2.763 0 0 0-.32-1.314 2.314 2.314 0 0 0-.874-.916c-.369-.223-.8-.334-1.292-.334-.526 0-.987.128-1.385.383a2.644 2.644 0 0 0-.93.995c-.218.407-.33.854-.334 1.342v1.513c0 .634.116 1.179.348 1.633.232.45.556.796.973 1.037.416.237.904.355 1.463.355.374 0 .713-.052 1.016-.156a2.26 2.26 0 0 0 .788-.476c.222-.208.39-.466.504-.774l2.4.27a3.748 3.748 0 0 1-.866 1.662c-.421.469-.961.833-1.62 1.094-.657.255-1.41.383-2.258.383zm9.097-14.758V363h-2.57v-14.545h2.57zm4.715 0V363h-2.57v-14.545h2.57zm6.902 14.758c-1.065 0-1.988-.234-2.769-.703a4.778 4.778 0 0 1-1.819-1.967c-.426-.843-.639-1.828-.639-2.955s.213-2.114.639-2.962a4.766 4.766 0 0 1 1.819-1.974c.781-.469 1.704-.703 2.769-.703 1.066 0 1.989.234 2.77.703a4.716 4.716 0 0 1 1.811 1.974c.431.848.647 1.835.647 2.962 0 1.127-.216 2.112-.647 2.955a4.727 4.727 0 0 1-1.811 1.967c-.781.469-1.704.703-2.77.703zm.015-2.06c.577 0 1.06-.158 1.449-.475.388-.322.677-.753.866-1.293.194-.54.291-1.141.291-1.804 0-.668-.097-1.271-.291-1.811-.189-.545-.478-.978-.866-1.3-.389-.322-.872-.483-1.449-.483-.592 0-1.085.161-1.478.483-.388.322-.679.755-.873 1.3-.19.54-.284 1.143-.284 1.811 0 .663.094 1.264.284 1.804.194.54.485.971.873 1.293.393.317.886.475 1.478.475z"/><path stroke="#E5E7EB" stroke-width="2" d="M236 229h156a7 7 0 0 1 7 7v156a7 7 0 0 1-7 7H236a7 7 0 0 1-7-7V236a7 7 0 0 1 7-7z"/><g clip-path="url(#m)"><path fill="#7B83EB" d="M315.805 281.513a9.178 9.178 0 1 0 0-18.355 9.178 9.178 0 0 0 0 18.355z"/><path fill="#000" d="M315.15 274.302h-8.311l.041.183.004.016.043.169a9.183 9.183 0 0 0 10.845 6.631v-4.377a2.632 2.632 0 0 0-2.622-2.622z" opacity=".1"/><path fill="#000" d="M313.184 276.269h-5.671a9.178 9.178 0 0 0 8.292 5.244v-2.623a2.628 2.628 0 0 0-2.621-2.621z" opacity=".2"/><path fill="#5059C9" d="M336.452 282.168a6.882 6.882 0 1 0 0-13.765 6.883 6.883 0 0 0 0 13.765zm5.9 1.966h-15.458a1.259 1.259 0 0 0-1.259 1.259v15.947a10.07 10.07 0 0 0 7.801 9.998 9.858 9.858 0 0 0 8.224-1.99 9.85 9.85 0 0 0 3.641-7.638v-14.626a2.947 2.947 0 0 0-2.949-2.95z"/><path fill="#7B83EB" d="M331.536 287.084v18.681a15.717 15.717 0 0 1-11.65 15.194 15.723 15.723 0 0 1-17.688-7.329 13.98 13.98 0 0 1-.983-1.966 16.386 16.386 0 0 1-.649-1.966 16.2 16.2 0 0 1-.492-3.933v-18.681a2.956 2.956 0 0 1 .863-2.087 2.943 2.943 0 0 1 2.087-.863h25.563a2.956 2.956 0 0 1 2.087.863 2.947 2.947 0 0 1 .862 2.087z"/><path fill="#000" d="M313.184 276.269h-5.671a9.178 9.178 0 0 0 8.292 5.244v-2.623a2.628 2.628 0 0 0-2.621-2.621z" opacity=".2"/><path fill="#000" d="M317.772 284.134v24.915a2.598 2.598 0 0 1-2.045 2.536 1.903 1.903 0 0 1-.571.079h-13.941a16.386 16.386 0 0 1-.649-1.966 16.2 16.2 0 0 1-.492-3.933v-18.681a2.956 2.956 0 0 1 .863-2.087 2.943 2.943 0 0 1 2.087-.863h14.748z" opacity=".1"/><path fill="#000" d="M315.805 284.134v26.881c.003.193-.023.385-.078.57a2.592 2.592 0 0 1-2.537 2.045h-10.992a13.98 13.98 0 0 1-.983-1.966 16.386 16.386 0 0 1-.649-1.966 16.2 16.2 0 0 1-.492-3.933v-18.681a2.956 2.956 0 0 1 .863-2.087 2.943 2.943 0 0 1 2.087-.863h12.781z" opacity=".2"/><path fill="#000" d="M315.805 284.134v22.948a2.625 2.625 0 0 1-2.615 2.616h-12.624a16.2 16.2 0 0 1-.492-3.933v-18.681a2.956 2.956 0 0 1 .863-2.087 2.943 2.943 0 0 1 2.087-.863h12.781z" opacity=".2"/><path fill="#000" d="M303.024 284.134a2.958 2.958 0 0 0-2.087.863 2.947 2.947 0 0 0-.863 2.087v18.681a16.2 16.2 0 0 0 .492 3.933h10.658a2.628 2.628 0 0 0 2.615-2.616v-22.948h-10.815z" opacity=".2"/><path fill="#4B53BC" d="M284.998 276.269h26.22a2.618 2.618 0 0 1 2.621 2.621v26.22a2.618 2.618 0 0 1-2.621 2.621h-26.22a2.62 2.62 0 0 1-2.622-2.621v-26.22a2.622 2.622 0 0 1 2.622-2.621z"/><path fill="#fff" d="M305.934 286.052h-5.88v15.77h-3.858v-15.77h-5.915v-3.874h15.653v3.874z"/></g><path fill="#121826" d="M266.935 347.917h3.224l4.318 10.54h.171l4.318-10.54h3.224v14.545h-2.528v-9.992h-.135l-4.02 9.95h-1.889l-4.02-9.972h-.135v10.014h-2.528v-14.545zm25.529 3.999c-.066-.621-.345-1.104-.838-1.449-.487-.346-1.122-.519-1.903-.519-.549 0-1.02.083-1.413.249-.393.165-.694.39-.902.674a1.642 1.642 0 0 0-.32.974c0 .303.069.565.206.788.142.222.334.412.575.568.242.152.509.279.803.384.293.104.589.191.888.262l1.363.341c.55.128 1.077.301 1.584.519a5.59 5.59 0 0 1 1.371.824c.407.331.729.731.966 1.2.236.469.355 1.018.355 1.648 0 .852-.218 1.602-.654 2.251-.435.644-1.065 1.148-1.889 1.513-.819.36-1.811.54-2.976.54-1.131 0-2.114-.176-2.947-.526-.829-.35-1.477-.862-1.946-1.534-.464-.672-.715-1.492-.753-2.457h2.592c.038.506.195.928.469 1.264.275.336.632.587 1.073.753.445.165.942.248 1.491.248.573 0 1.075-.085 1.506-.256.435-.175.776-.416 1.023-.724.246-.312.371-.677.376-1.094-.005-.378-.116-.691-.334-.937-.218-.251-.523-.459-.916-.625a8.804 8.804 0 0 0-1.364-.455l-1.655-.426c-1.197-.308-2.144-.774-2.84-1.399-.692-.63-1.037-1.465-1.037-2.507 0-.857.232-1.608.696-2.252.468-.644 1.105-1.143 1.91-1.498.805-.36 1.717-.54 2.735-.54 1.032 0 1.936.18 2.713.54.781.355 1.394.85 1.839 1.484.445.63.675 1.354.689 2.174h-2.536zm8.406-1.79v-2.209h11.605v2.209h-4.496v12.336h-2.614v-12.336h-4.495zm16.476 12.549c-1.094 0-2.038-.227-2.834-.681a4.619 4.619 0 0 1-1.825-1.946c-.426-.843-.639-1.835-.639-2.976 0-1.122.213-2.107.639-2.955.431-.852 1.032-1.515 1.804-1.988.772-.479 1.678-.718 2.72-.718.672 0 1.307.109 1.903.327a4.29 4.29 0 0 1 1.591.994c.464.45.829 1.023 1.094 1.719.265.691.398 1.515.398 2.472v.788h-8.942v-1.733h6.477a2.763 2.763 0 0 0-.319-1.314 2.327 2.327 0 0 0-.874-.916c-.369-.223-.8-.334-1.293-.334-.525 0-.987.128-1.384.384a2.645 2.645 0 0 0-.931.994 2.862 2.862 0 0 0-.334 1.342v1.513c0 .635.116 1.179.348 1.634.232.449.557.795.973 1.037.417.236.905.355 1.463.355a3.09 3.09 0 0 0 1.016-.157c.303-.109.566-.267.788-.475.223-.209.391-.467.505-.775l2.4.27a3.733 3.733 0 0 1-.866 1.662c-.422.469-.961.834-1.62 1.094-.658.256-1.411.383-2.258.383zm9.665.008c-.691 0-1.314-.124-1.868-.37a3.049 3.049 0 0 1-1.307-1.108c-.317-.487-.476-1.089-.476-1.804 0-.615.114-1.124.341-1.527.228-.402.538-.724.931-.966a4.695 4.695 0 0 1 1.328-.546 10.667 10.667 0 0 1 1.541-.277 63.84 63.84 0 0 0 1.555-.178c.398-.057.687-.142.867-.256.185-.118.277-.3.277-.547v-.042c0-.535-.159-.95-.476-1.243-.317-.294-.774-.44-1.371-.44-.629 0-1.129.137-1.498.412-.365.274-.611.598-.739.973l-2.4-.341c.189-.663.501-1.217.937-1.662.436-.45.968-.786 1.598-1.009a6.122 6.122 0 0 1 2.088-.341 6.81 6.81 0 0 1 1.57.185c.521.123.996.327 1.427.611.431.279.777.66 1.037 1.143.265.483.398 1.087.398 1.811v7.301h-2.472v-1.498h-.085a3.13 3.13 0 0 1-.66.852c-.28.261-.632.471-1.059.632-.421.156-.916.235-1.484.235zm.668-1.89c.516 0 .963-.101 1.342-.305.379-.208.67-.483.874-.824a2.1 2.1 0 0 0 .312-1.115v-1.285c-.08.066-.218.127-.412.184a5.617 5.617 0 0 1-.639.149 18.64 18.64 0 0 1-.703.114c-.232.033-.433.062-.604.085a4.512 4.512 0 0 0-1.03.256 1.705 1.705 0 0 0-.717.497c-.175.208-.263.478-.263.81 0 .473.173.831.519 1.072.345.242.786.362 1.321.362zm7.177 1.669v-10.909h2.458v1.854h.127a2.895 2.895 0 0 1 1.13-1.463c.525-.355 1.153-.533 1.882-.533.738 0 1.361.18 1.868.54.511.355.871.84 1.079 1.456h.114a2.984 2.984 0 0 1 1.221-1.449c.578-.364 1.262-.547 2.053-.547 1.004 0 1.823.318 2.457.952.635.634.952 1.56.952 2.777v7.322h-2.578v-6.924c0-.677-.18-1.172-.54-1.485-.36-.317-.8-.476-1.321-.476-.62 0-1.105.195-1.456.583-.345.383-.518.883-.518 1.498v6.804h-2.522v-7.031c0-.563-.17-1.013-.511-1.349-.336-.336-.776-.505-1.321-.505a1.86 1.86 0 0 0-1.008.285 1.97 1.97 0 0 0-.725.788c-.18.336-.27.729-.27 1.179v6.633h-2.571zm26.072-8.025-2.344.256a1.87 1.87 0 0 0-.348-.668 1.722 1.722 0 0 0-.654-.504c-.274-.128-.61-.192-1.008-.192-.535 0-.985.116-1.35.348-.359.232-.537.533-.532.902a.942.942 0 0 0 .348.774c.241.199.639.362 1.193.49l1.861.398c1.032.222 1.799.575 2.301 1.058.507.483.762 1.115.767 1.896a2.97 2.97 0 0 1-.604 1.819c-.393.52-.94.928-1.64 1.221-.701.294-1.506.44-2.415.44-1.335 0-2.41-.279-3.225-.838-.814-.563-1.299-1.347-1.456-2.35l2.508-.242c.113.492.355.864.724 1.115s.85.377 1.442.377c.611 0 1.101-.126 1.47-.377.374-.251.561-.561.561-.93a.968.968 0 0 0-.362-.774c-.237-.204-.606-.36-1.108-.469l-1.861-.391c-1.046-.218-1.821-.585-2.322-1.101-.502-.52-.751-1.179-.746-1.974-.005-.672.177-1.255.547-1.747.374-.497.892-.881 1.555-1.151.668-.274 1.437-.412 2.308-.412 1.279 0 2.285.273 3.019.817.738.545 1.195 1.281 1.371 2.209z"/><path stroke="#E5E7EB" stroke-width="2" d="M464 229h156a7 7 0 0 1 7 7v156a7 7 0 0 1-7 7H464a7 7 0 0 1-7-7V236a7 7 0 0 1 7-7z"/><g fill-rule="evenodd" clip-path="url(#n)" clip-rule="evenodd"><path fill="#36C5F0" d="M533.465 260a6.398 6.398 0 0 0-6.398 6.399c-.003 3.53 2.863 6.396 6.401 6.398h6.401v-6.396c.002-3.53-2.863-6.396-6.404-6.401.003 0 .003 0 0 0zm0 17.067h-17.064c-3.538.002-6.404 2.868-6.401 6.398-.005 3.531 2.86 6.396 6.398 6.402h17.067c3.538-.003 6.404-2.868 6.401-6.399a6.4 6.4 0 0 0-6.401-6.401z"/><path fill="#2EB67D" d="M574 283.465a6.4 6.4 0 0 0-6.401-6.398c-3.538.002-6.404 2.868-6.401 6.398v6.402h6.401a6.401 6.401 0 0 0 6.401-6.402zm-17.067 0v-17.066c.003-3.528-2.861-6.394-6.398-6.399-3.538.003-6.404 2.868-6.401 6.399v17.066c-.006 3.531 2.86 6.396 6.398 6.402a6.4 6.4 0 0 0 6.401-6.402z"/><path fill="#ECB22E" d="M550.532 324c3.538-.003 6.404-2.868 6.401-6.399.003-3.53-2.863-6.396-6.401-6.398h-6.401v6.398c-.003 3.528 2.863 6.394 6.401 6.399zm0-17.069h17.067c3.538-.003 6.403-2.868 6.401-6.399.005-3.531-2.861-6.396-6.399-6.401h-17.066a6.4 6.4 0 1 0-.003 12.8z"/><path fill="#E01E5A" d="M510 300.532c-.003 3.531 2.863 6.396 6.401 6.399 3.538-.003 6.404-2.868 6.401-6.399v-6.399h-6.401c-3.538.003-6.404 2.868-6.401 6.399zm17.067 0v17.067c-.006 3.53 2.86 6.396 6.398 6.401 3.538-.003 6.404-2.868 6.401-6.399v-17.064c.005-3.531-2.86-6.396-6.398-6.401a6.394 6.394 0 0 0-6.401 6.396z"/></g><path fill="#121826" d="M525.839 352.453c-.066-.62-.345-1.103-.838-1.449-.487-.345-1.122-.518-1.903-.518-.549 0-1.02.083-1.413.248-.393.166-.694.391-.902.675a1.64 1.64 0 0 0-.32.973c0 .303.069.566.206.788.142.223.334.412.575.569.242.151.509.279.803.383.293.104.589.192.888.263l1.363.341a9.47 9.47 0 0 1 1.584.518 5.62 5.62 0 0 1 1.371.824c.407.332.729.732.966 1.2.236.469.355 1.018.355 1.648 0 .852-.218 1.603-.654 2.252-.435.644-1.065 1.148-1.889 1.512-.819.36-1.811.54-2.976.54-1.131 0-2.114-.175-2.947-.525-.829-.351-1.477-.862-1.946-1.534-.464-.673-.715-1.492-.753-2.458h2.592c.038.507.195.928.469 1.264.275.337.632.587 1.073.753a4.24 4.24 0 0 0 1.491.249c.573 0 1.075-.085 1.506-.256.435-.175.776-.417 1.022-.724.247-.313.372-.677.377-1.094-.005-.379-.116-.691-.334-.938-.218-.251-.523-.459-.916-.625a8.809 8.809 0 0 0-1.364-.454l-1.655-.426c-1.197-.308-2.144-.774-2.84-1.399-.692-.63-1.037-1.466-1.037-2.508 0-.857.232-1.607.696-2.251.468-.644 1.105-1.143 1.91-1.499.805-.359 1.717-.539 2.735-.539 1.032 0 1.936.18 2.713.539.781.356 1.394.85 1.839 1.485.445.63.675 1.354.689 2.173h-2.536zm7.041-3.998V363h-2.571v-14.545h2.571zm5.283 14.765c-.691 0-1.314-.123-1.868-.369a3.046 3.046 0 0 1-1.306-1.108c-.318-.488-.476-1.089-.476-1.804 0-.616.113-1.125.341-1.527.227-.403.537-.724.93-.966a4.708 4.708 0 0 1 1.328-.547c.497-.128 1.011-.22 1.541-.277.64-.066 1.158-.125 1.556-.177.398-.057.686-.142.866-.256.185-.118.277-.301.277-.547v-.043c0-.535-.158-.949-.476-1.242-.317-.294-.774-.441-1.37-.441-.63 0-1.13.138-1.499.412-.364.275-.611.599-.739.973l-2.4-.341c.189-.663.502-1.217.937-1.662.436-.45.969-.786 1.598-1.008.63-.228 1.326-.341 2.088-.341.526 0 1.049.061 1.57.185.521.123.997.326 1.428.61.431.28.776.661 1.037 1.144.265.483.397 1.086.397 1.811V363h-2.471v-1.499h-.086a3.135 3.135 0 0 1-.66.853 3.18 3.18 0 0 1-1.058.632c-.422.156-.916.234-1.485.234zm.668-1.889c.516 0 .964-.102 1.342-.305.379-.209.67-.483.874-.824.208-.341.312-.713.312-1.115v-1.286c-.08.066-.217.128-.412.185a5.84 5.84 0 0 1-.639.149c-.237.043-.471.08-.703.114l-.604.085a4.504 4.504 0 0 0-1.029.255 1.72 1.72 0 0 0-.718.498c-.175.208-.263.478-.263.809 0 .474.173.831.519 1.073.346.241.786.362 1.321.362zm11.936 1.882c-1.089 0-2.024-.239-2.805-.717a4.783 4.783 0 0 1-1.797-1.982c-.417-.847-.625-1.823-.625-2.926 0-1.108.213-2.086.639-2.933.426-.852 1.027-1.515 1.804-1.989.781-.478 1.705-.717 2.77-.717.885 0 1.669.163 2.351.49a4.016 4.016 0 0 1 1.64 1.371c.408.587.64 1.273.696 2.059h-2.457a2.35 2.35 0 0 0-.71-1.314c-.37-.355-.864-.532-1.485-.532-.525 0-.987.142-1.385.426-.397.279-.707.682-.93 1.207-.218.526-.327 1.156-.327 1.889 0 .744.109 1.383.327 1.918.218.53.523.94.916 1.229.398.284.864.426 1.399.426.379 0 .718-.071 1.016-.213.303-.147.556-.358.76-.632a2.43 2.43 0 0 0 .419-1.002h2.457c-.061.772-.288 1.456-.681 2.053a4.038 4.038 0 0 1-1.606 1.392c-.677.331-1.472.497-2.386.497zm8.628-3.636-.007-3.104h.412l3.921-4.382h3.004l-4.823 5.369h-.532l-1.975 2.117zM557.051 363v-14.545h2.572V363h-2.572zm6.847 0-3.551-4.964 1.733-1.812 4.893 6.776h-3.075z"/><path stroke="#E5E7EB" stroke-width="2" d="M692 229h156a7 7 0 0 1 7 7v156a7 7 0 0 1-7 7H692a7 7 0 0 1-7-7V236a7 7 0 0 1 7-7z"/><path fill="#E79225" d="M801.991 285.652v15.17l-2.1 2.05v-14.846l2.1-2.374z"/><path fill="#FFF16D" d="m788.232 285.664-2.174 2.362.112.15 13.634-.05.125-.1 2.062-2.374-13.759.012z"/><path fill="url(#o)" d="M786.058 288.026h13.871v14.858h-13.871v-14.858z"/><path fill="#fff" d="M797.817 293.375a5.479 5.479 0 0 0-1.225-1.85 5.056 5.056 0 0 0-1.737-1.187 5.387 5.387 0 0 0-2.074-.4c-.75 0-1.45.138-2.087.4a5.056 5.056 0 0 0-1.737 1.187 5.457 5.457 0 0 0-1.212 1.85c-.275.687-.4 1.437-.4 2.261 0 .8.137 1.55.412 2.25.275.7.675 1.324 1.212 1.874.5.513 1.075.9 1.712 1.162.638.263 1.35.4 2.112.4.738 0 1.425-.137 2.062-.4a5.275 5.275 0 0 0 1.737-1.162c.538-.55.95-1.174 1.225-1.862a6.043 6.043 0 0 0 .412-2.249c0-.837-.137-1.587-.412-2.274zm-2.862 4.898c-.537.637-1.249.962-2.174.962-.925 0-1.65-.325-2.187-.962-.537-.637-.8-1.524-.8-2.649 0-1.15.275-2.037.8-2.687.537-.65 1.25-.962 2.187-.962.925 0 1.637.325 2.174.962.525.65.8 1.537.8 2.687 0 1.125-.262 2.012-.8 2.649z"/><path fill="#009ADA" d="M784.696 284.415v.075l1.774 13.633-1.037 2.874-.138-.1-1.824-13.071.037-.175 1.138-3.161.05-.075z"/><path fill="#91C9ED" d="m771.037 286.314 13.658-1.899-1.149 3.274-.163.175-12.771 1.874.063-2.337.362-1.087z"/><path fill="url(#p)" d="m783.546 287.689 1.887 13.308-13.459 1.887-1.812-12.858.788-.613 12.596-1.724z"/><path fill="#fff" d="M781.259 290.238c-.062-.412-.2-.725-.425-.937a.997.997 0 0 0-.675-.25c-.062 0-.137 0-.212.012-.35.05-.612.213-.775.475-.125.188-.175.425-.175.7 0 .1.013.212.025.325l.488 3.461-3.874.575-.488-3.461c-.062-.4-.2-.713-.425-.925a.944.944 0 0 0-.662-.262c-.062 0-.125 0-.187.012-.363.05-.638.213-.813.475-.124.187-.174.425-.174.7 0 .1.012.212.025.337l1.324 9.01c.063.412.2.725.45.937a.997.997 0 0 0 .687.238c.075 0 .15 0 .225-.013.338-.05.588-.212.75-.475.112-.187.162-.412.162-.675 0-.099-.012-.212-.025-.324l-.537-3.562 3.874-.575.537 3.562c.063.412.2.725.438.924.187.163.412.25.674.25.063 0 .138 0 .213-.012.35-.05.612-.213.775-.475.112-.187.175-.412.175-.687 0-.1-.013-.213-.025-.325l-1.35-9.035z"/><path fill="#66BF6B" d="m758.254 280.941-4.861 11.546.662 5.074.037-.013 5.461-12.283-.025-.263-1.174-3.899-.1-.162z"/><path fill="#98D0A0" d="m758.254 280.941 1.262 4.236.025.088 12.021 5.385.038-.025-1.025-4.048-12.321-5.636z"/><path fill="url(#q)" d="m759.516 285.177 12.084 5.448-5.461 12.384-12.084-5.448 5.461-12.384z"/><path fill="#fff" d="M767.938 291.625c-.262-.7-.624-1.3-1.099-1.799a5.13 5.13 0 0 0-1.725-1.188 5.14 5.14 0 0 0-2.037-.424h-.037c-.7 0-1.387.162-2.062.462a5.491 5.491 0 0 0-1.849 1.3c-.525.549-.95 1.224-1.275 1.999a6.675 6.675 0 0 0-.537 2.299v.263c0 .675.112 1.337.349 1.987.25.687.613 1.274 1.088 1.774.475.5 1.062.9 1.762 1.187a5.02 5.02 0 0 0 2.024.425h.013c.687 0 1.374-.15 2.049-.437a5.615 5.615 0 0 0 1.862-1.312 6.488 6.488 0 0 0 1.287-1.987c.325-.775.5-1.537.537-2.3v-.224a5.39 5.39 0 0 0-.35-2.025zm-2.411 3.599c-.45 1.075-1.063 1.812-1.8 2.212-.4.212-.812.325-1.224.325-.363 0-.75-.088-1.138-.25-.849-.363-1.374-.937-1.599-1.762a3.26 3.26 0 0 1-.113-.862c0-.6.15-1.262.45-1.975.463-1.099 1.075-1.849 1.812-2.262.4-.225.812-.325 1.225-.325.375 0 .75.088 1.15.25.837.363 1.362.938 1.587 1.762.075.263.112.55.112.85 0 .625-.15 1.3-.462 2.037z"/><path fill="#760D16" d="m752.431 282.903 1.974 13.221-.9 4.648-.125-.162-1.924-12.771v-.25l.85-4.461.125-.225z"/><path fill="#EF463E" d="m738.01 289.738.937-4.673 13.483-2.162-.912 4.761v.312l-13.346 1.887-.162-.125z"/><path fill="url(#r)" d="m751.518 287.664 1.987 13.108-13.346 2.087-2.149-13.121 13.508-2.074z"/><path fill="#fff" d="M750.081 298.686a.93.93 0 0 0-.424-.275c-.175-.063-.388-.088-.65-.088-.238 0-.513.025-.813.075l-3.523.6c.037-.275.174-.625.412-1.062.262-.488.662-1.075 1.175-1.75.174-.237.312-.412.412-.537.062-.088.162-.2.287-.362.813-1.063 1.3-1.925 1.5-2.6a5.41 5.41 0 0 0 .2-1.162c.012-.112.012-.212.012-.312 0-.275-.025-.55-.075-.825-.037-.25-.1-.45-.187-.612-.088-.163-.188-.288-.313-.363-.137-.087-.349-.125-.612-.125-.212 0-.475.025-.787.075l-4.074.7c-.487.088-.862.225-1.087.45a.862.862 0 0 0-.275.65c0 .062 0 .137.013.212.062.35.237.6.524.725.175.075.375.112.625.112.163 0 .35-.012.55-.05l3.399-.599c0 .062.013.125.013.175 0 .212-.038.424-.113.624-.1.288-.35.688-.762 1.2-.113.138-.288.362-.525.65-.925 1.112-1.575 2.062-1.974 2.849a6.16 6.16 0 0 0-.588 1.612c-.062.312-.1.6-.1.887 0 .2.013.4.05.588.05.275.113.499.2.674a.897.897 0 0 0 .35.388c.137.075.325.1.6.1.337 0 .8-.05 1.387-.15l3.699-.638c.65-.112 1.112-.274 1.374-.487a.862.862 0 0 0 .325-.687c0-.075-.012-.15-.025-.225a.818.818 0 0 0-.2-.437z"/><path fill="#121826" d="M746.665 363v-1.641l7.457-10.696h-7.5v-2.208h10.767v1.64l-7.45 10.696h7.493V363h-10.767zm17.461.213c-1.065 0-1.988-.234-2.769-.703a4.778 4.778 0 0 1-1.819-1.967c-.426-.843-.639-1.828-.639-2.955s.213-2.114.639-2.962a4.766 4.766 0 0 1 1.819-1.974c.781-.469 1.704-.703 2.769-.703 1.066 0 1.989.234 2.77.703a4.716 4.716 0 0 1 1.811 1.974c.431.848.647 1.835.647 2.962 0 1.127-.216 2.112-.647 2.955a4.727 4.727 0 0 1-1.811 1.967c-.781.469-1.704.703-2.77.703zm.015-2.06c.577 0 1.06-.158 1.448-.475.389-.322.678-.753.867-1.293.194-.54.291-1.141.291-1.804 0-.668-.097-1.271-.291-1.811-.189-.545-.478-.978-.867-1.3-.388-.322-.871-.483-1.448-.483-.592 0-1.085.161-1.478.483-.388.322-.679.755-.873 1.3-.19.54-.284 1.143-.284 1.811 0 .663.094 1.264.284 1.804.194.54.485.971.873 1.293.393.317.886.475 1.478.475zm9.466-4.545V363h-2.571v-14.545h2.514v5.49h.128a3.155 3.155 0 0 1 1.186-1.456c.54-.36 1.226-.54 2.06-.54.757 0 1.418.158 1.981.476.564.317.999.781 1.307 1.392.313.611.469 1.356.469 2.237V363h-2.571v-6.548c0-.734-.19-1.305-.568-1.712-.375-.412-.9-.618-1.577-.618-.455 0-.862.1-1.222.298a2.094 2.094 0 0 0-.838.846c-.199.369-.298.816-.298 1.342zm13.953 6.605c-1.065 0-1.989-.234-2.77-.703a4.782 4.782 0 0 1-1.818-1.967c-.426-.843-.639-1.828-.639-2.955s.213-2.114.639-2.962a4.77 4.77 0 0 1 1.818-1.974c.781-.469 1.705-.703 2.77-.703s1.989.234 2.77.703a4.722 4.722 0 0 1 1.811 1.974c.431.848.646 1.835.646 2.962 0 1.127-.215 2.112-.646 2.955a4.734 4.734 0 0 1-1.811 1.967c-.781.469-1.705.703-2.77.703zm.014-2.06c.578 0 1.061-.158 1.449-.475.388-.322.677-.753.867-1.293.194-.54.291-1.141.291-1.804 0-.668-.097-1.271-.291-1.811-.19-.545-.479-.978-.867-1.3-.388-.322-.871-.483-1.449-.483-.592 0-1.084.161-1.477.483-.388.322-.68.755-.874 1.3a5.453 5.453 0 0 0-.284 1.811c0 .663.095 1.264.284 1.804.194.54.486.971.874 1.293.393.317.885.475 1.477.475z"/><path stroke="#E5E7EB" stroke-width="2" d="M122 457h156a7 7 0 0 1 7 7v156a7 7 0 0 1-7 7H122a7 7 0 0 1-7-7V464a7 7 0 0 1 7-7z"/><path fill="#FFCB00" d="M200.099 539.368c-2.8-.068-5.109-1.303-6.583-3.881-1.512-2.665-1.446-5.393.165-7.992 3.837-6.185 7.724-12.336 11.587-18.503.79-1.261 1.561-2.541 2.388-3.779a7.74 7.74 0 0 1 10.533-2.393c3.636 2.24 4.853 6.901 2.588 10.575a1560.228 1560.228 0 0 1-14.085 22.508c-1.467 2.309-3.692 3.423-6.593 3.465z"/><path fill="#FF3D57" d="M176.057 539.368c-2.825-.068-5.121-1.358-6.567-3.926-1.49-2.665-1.395-5.398.221-7.997a4560.773 4560.773 0 0 1 12.437-19.836c.527-.853 1.053-1.727 1.617-2.554a7.743 7.743 0 0 1 13.917 2.646 7.742 7.742 0 0 1-.907 5.744c-4.613 7.449-9.289 14.872-13.969 22.287-1.519 2.404-3.755 3.594-6.749 3.636z"/><path fill="#00D647" d="M224.295 524.27c4.258.021 7.705 3.404 7.697 7.554 0 4.213-3.539 7.61-7.837 7.558-4.297-.053-7.683-3.4-7.678-7.568.005-4.229 3.465-7.571 7.818-7.544z"/><path fill="#121826" d="M163.435 576.455h3.224l4.318 10.539h.171l4.318-10.539h3.224V591h-2.528v-9.993h-.135l-4.02 9.95h-1.889l-4.02-9.971h-.135V591h-2.528v-14.545zm22.27 14.758c-1.066 0-1.989-.234-2.77-.703a4.778 4.778 0 0 1-1.819-1.967c-.426-.843-.639-1.828-.639-2.955s.213-2.114.639-2.962a4.766 4.766 0 0 1 1.819-1.974c.781-.469 1.704-.703 2.77-.703 1.065 0 1.988.234 2.769.703a4.724 4.724 0 0 1 1.812 1.974c.43.848.646 1.835.646 2.962 0 1.127-.216 2.112-.646 2.955a4.736 4.736 0 0 1-1.812 1.967c-.781.469-1.704.703-2.769.703zm.014-2.06c.577 0 1.06-.158 1.449-.475.388-.322.677-.753.866-1.293.194-.54.291-1.141.291-1.804 0-.668-.097-1.271-.291-1.811-.189-.545-.478-.978-.866-1.3-.389-.322-.872-.483-1.449-.483-.592 0-1.085.161-1.478.483-.388.322-.679.755-.873 1.3a5.453 5.453 0 0 0-.284 1.811c0 .663.095 1.264.284 1.804.194.54.485.971.873 1.293.393.317.886.475 1.478.475zm9.466-4.545V591h-2.571v-10.909h2.457v1.854h.128a3.11 3.11 0 0 1 1.201-1.456c.553-.36 1.238-.54 2.052-.54.753 0 1.409.161 1.967.483a3.25 3.25 0 0 1 1.307 1.399c.313.611.467 1.352.462 2.223V591h-2.571v-6.548c0-.729-.19-1.3-.568-1.712-.374-.412-.893-.618-1.556-.618-.45 0-.85.1-1.2.298a2.07 2.07 0 0 0-.817.846c-.194.369-.291.816-.291 1.342zm13.165 6.584c-.857 0-1.624-.22-2.301-.661-.677-.44-1.212-1.079-1.605-1.917-.393-.838-.59-1.856-.59-3.054 0-1.212.199-2.235.597-3.069.402-.838.944-1.47 1.626-1.896a4.18 4.18 0 0 1 2.28-.646c.639 0 1.165.109 1.577.327.412.213.738.471.98.774.241.298.428.58.561.845h.106v-5.44h2.578V591h-2.528v-1.719h-.156a4.449 4.449 0 0 1-.575.845 3.156 3.156 0 0 1-.995.753c-.412.209-.93.313-1.555.313zm.717-2.11c.545 0 1.009-.146 1.392-.44.384-.298.675-.713.874-1.243.199-.53.298-1.148.298-1.854 0-.705-.099-1.318-.298-1.839-.194-.521-.483-.926-.867-1.215-.379-.288-.845-.433-1.399-.433-.573 0-1.051.149-1.435.448-.383.298-.672.71-.866 1.235-.194.526-.291 1.127-.291 1.804 0 .682.097 1.291.291 1.826.199.53.49.949.874 1.257.388.303.864.454 1.427.454zm10.471 2.138c-.691 0-1.314-.123-1.868-.369a3.046 3.046 0 0 1-1.306-1.108c-.318-.488-.476-1.089-.476-1.804 0-.616.113-1.125.341-1.527.227-.403.537-.724.93-.966a4.708 4.708 0 0 1 1.328-.547c.497-.128 1.011-.22 1.541-.277.64-.066 1.158-.125 1.556-.177.398-.057.686-.142.866-.256.185-.118.277-.301.277-.547v-.043c0-.535-.158-.949-.476-1.242-.317-.294-.774-.441-1.37-.441-.63 0-1.13.138-1.499.412-.364.275-.611.599-.739.973l-2.4-.341c.189-.663.502-1.217.937-1.662.436-.45.969-.786 1.598-1.008.63-.228 1.326-.341 2.088-.341.526 0 1.049.061 1.57.185.521.123.997.326 1.428.61.431.28.776.661 1.037 1.144.265.483.397 1.086.397 1.811V591h-2.471v-1.499h-.086a3.135 3.135 0 0 1-.66.853 3.18 3.18 0 0 1-1.058.632c-.422.156-.916.234-1.485.234zm.668-1.889c.516 0 .964-.102 1.342-.305.379-.209.67-.483.874-.824.208-.341.312-.713.312-1.115v-1.286c-.08.066-.217.128-.412.185a5.84 5.84 0 0 1-.639.149c-.237.043-.471.08-.703.114l-.604.085a4.504 4.504 0 0 0-1.029.255 1.72 1.72 0 0 0-.718.498c-.175.208-.263.478-.263.809 0 .474.173.831.519 1.073.346.241.786.362 1.321.362zm8.385 5.76c-.35 0-.675-.028-.973-.085a3.582 3.582 0 0 1-.703-.185l.596-2.003c.374.109.708.161 1.002.156.293-.004.551-.097.774-.277.227-.175.419-.468.575-.88l.22-.59-3.956-11.136h2.728l2.514 8.239h.114l2.521-8.239h2.734l-4.368 12.23a4.883 4.883 0 0 1-.809 1.484 3.295 3.295 0 0 1-1.236.952c-.483.223-1.061.334-1.733.334z"/><path stroke="#E5E7EB" stroke-width="2" d="M350 457h156a7 7 0 0 1 7 7v156a7 7 0 0 1-7 7H350a7 7 0 0 1-7-7V464a7 7 0 0 1 7-7z"/><g clip-path="url(#s)"><path fill="#036C70" d="M428.756 524.5c10.018 0 18.139-8.059 18.139-18s-8.121-18-18.139-18c-10.018 0-18.14 8.059-18.14 18s8.122 18 18.14 18z"/><path fill="#1A9BA1" d="M443.872 539.5c9.183 0 16.628-7.387 16.628-16.5s-7.445-16.5-16.628-16.5-16.628 7.387-16.628 16.5 7.445 16.5 16.628 16.5z"/><path fill="#37C6D0" d="M431.023 551.5c7.096 0 12.849-5.708 12.849-12.75S438.119 526 431.023 526s-12.849 5.708-12.849 12.75 5.753 12.75 12.849 12.75z"/><path fill="#000" d="M431.779 504.745v32.01a2.762 2.762 0 0 1-1.723 2.535c-.33.139-.685.21-1.043.21H418.19c-.016-.255-.016-.495-.016-.75-.005-.25.006-.501.031-.75.276-4.795 3.253-9.025 7.694-10.935v-2.79c-9.883-1.554-16.626-10.764-15.059-20.571l.033-.204c.076-.506.182-1.007.318-1.5h17.822a2.766 2.766 0 0 1 2.766 2.745z" opacity=".1"/><path fill="#000" d="M427.501 503.5h-16.628c-1.679 9.789 4.956 19.077 14.822 20.743.298.051.598.094.899.129-4.686 2.205-8.101 8.468-8.391 13.628-.025.249-.035.5-.03.75 0 .255 0 .495.015.75.027.504.093 1.006.196 1.5h9.116a2.78 2.78 0 0 0 2.766-2.745v-32.01a2.767 2.767 0 0 0-2.765-2.745z" opacity=".2"/><path fill="#000" d="M427.501 503.5h-16.628c-1.679 9.79 4.958 19.078 14.824 20.744.202.035.404.065.607.093-4.535 2.364-7.815 8.611-8.099 13.663h9.296a2.776 2.776 0 0 0 2.766-2.745v-29.01c-.005-1.514-1.24-2.739-2.766-2.745z" opacity=".2"/><path fill="#000" d="M425.99 503.5h-15.117c-1.586 9.242 4.251 18.143 13.408 20.448A24.69 24.69 0 0 0 418.205 538h7.785a2.766 2.766 0 0 0 2.766-2.745v-29.01a2.757 2.757 0 0 0-2.766-2.745z" opacity=".2"/><path fill="url(#t)" d="M398.271 503.5h27.714a2.76 2.76 0 0 1 2.771 2.75v27.5a2.76 2.76 0 0 1-2.771 2.75h-27.714a2.76 2.76 0 0 1-2.771-2.75v-27.5a2.76 2.76 0 0 1 2.771-2.75z"/><path fill="#fff" d="M407.876 519.664a5.082 5.082 0 0 1-1.586-1.663 4.504 4.504 0 0 1-.552-2.276 4.361 4.361 0 0 1 1.027-2.948 6.067 6.067 0 0 1 2.73-1.767 11.653 11.653 0 0 1 3.729-.573c1.665-.06 3.328.171 4.913.683v3.45a7.7 7.7 0 0 0-2.222-.9 10.888 10.888 0 0 0-2.599-.309 5.653 5.653 0 0 0-2.671.561c-.641.274-1.057.9-1.058 1.593-.003.42.16.825.453 1.128.347.357.757.648 1.21.858.504.249 1.259.58 2.267.993.111.035.219.078.324.129.991.385 1.948.853 2.86 1.4a5.101 5.101 0 0 1 1.69 1.689c.431.779.64 1.661.604 2.55a4.724 4.724 0 0 1-.961 3.069 5.39 5.39 0 0 1-2.57 1.716 11.78 11.78 0 0 1-3.664.528 19.613 19.613 0 0 1-3.326-.27 11.494 11.494 0 0 1-2.695-.786v-3.638a8.708 8.708 0 0 0 2.721 1.29c.973.301 1.984.461 3.002.477a5.206 5.206 0 0 0 2.721-.573c.586-.328.943-.95.928-1.618a1.715 1.715 0 0 0-.514-1.239 5.177 5.177 0 0 0-1.416-.98c-.605-.3-1.495-.695-2.671-1.186a15.202 15.202 0 0 1-2.674-1.388z"/></g><path fill="#121826" d="M361.435 575.955h3.224l4.318 10.539h.171l4.318-10.539h3.224V590.5h-2.528v-9.993h-.135l-4.02 9.95h-1.889l-4.02-9.971h-.135V590.5h-2.528v-14.545zm25.529 3.998c-.066-.62-.345-1.103-.838-1.449-.487-.345-1.122-.518-1.903-.518-.549 0-1.02.083-1.413.248-.393.166-.694.391-.902.675a1.64 1.64 0 0 0-.32.973c0 .303.069.566.206.788.142.223.334.412.575.569.242.151.509.279.803.383.293.104.589.192.888.263l1.363.341a9.47 9.47 0 0 1 1.584.518 5.62 5.62 0 0 1 1.371.824c.407.332.729.732.966 1.2.236.469.355 1.018.355 1.648 0 .852-.218 1.603-.654 2.252-.435.644-1.065 1.148-1.889 1.512-.819.36-1.811.54-2.976.54-1.131 0-2.114-.175-2.947-.525-.829-.351-1.477-.862-1.946-1.534-.464-.673-.715-1.492-.753-2.458h2.592c.038.507.195.928.469 1.264.275.337.632.587 1.073.753a4.24 4.24 0 0 0 1.491.249c.573 0 1.075-.085 1.506-.256.435-.175.776-.417 1.023-.724.246-.313.371-.677.376-1.094-.005-.379-.116-.691-.334-.938-.218-.251-.523-.459-.916-.625a8.809 8.809 0 0 0-1.364-.454l-1.655-.426c-1.197-.308-2.144-.774-2.84-1.399-.692-.63-1.037-1.466-1.037-2.508 0-.857.232-1.607.696-2.251.468-.644 1.105-1.143 1.91-1.499.805-.359 1.717-.539 2.735-.539 1.032 0 1.936.18 2.713.539.781.356 1.394.85 1.839 1.485.445.63.675 1.354.689 2.173h-2.536zm16.95 0c-.067-.62-.346-1.103-.838-1.449-.488-.345-1.123-.518-1.904-.518-.549 0-1.02.083-1.413.248-.393.166-.694.391-.902.675a1.646 1.646 0 0 0-.32.973c0 .303.069.566.206.788.142.223.334.412.576.569.241.151.509.279.802.383.294.104.59.192.888.263l1.364.341a9.458 9.458 0 0 1 1.583.518c.512.218.969.493 1.371.824.407.332.729.732.966 1.2.237.469.355 1.018.355 1.648 0 .852-.218 1.603-.653 2.252-.436.644-1.066 1.148-1.89 1.512-.819.36-1.811.54-2.975.54-1.132 0-2.114-.175-2.948-.525-.828-.351-1.477-.862-1.946-1.534-.464-.673-.715-1.492-.753-2.458h2.593c.038.507.194.928.468 1.264.275.337.632.587 1.073.753a4.24 4.24 0 0 0 1.491.249c.573 0 1.075-.085 1.506-.256.436-.175.777-.417 1.023-.724.246-.313.371-.677.376-1.094-.005-.379-.116-.691-.334-.938-.217-.251-.523-.459-.916-.625a8.83 8.83 0 0 0-1.363-.454l-1.655-.426c-1.198-.308-2.145-.774-2.841-1.399-.692-.63-1.037-1.466-1.037-2.508 0-.857.232-1.607.696-2.251.469-.644 1.105-1.143 1.91-1.499.805-.359 1.717-.539 2.735-.539 1.032 0 1.936.18 2.713.539.781.356 1.394.85 1.839 1.485.445.63.675 1.354.689 2.173h-2.535zm7.041 4.155v6.392h-2.571v-14.545h2.514v5.49h.128a3.15 3.15 0 0 1 1.186-1.456c.539-.36 1.226-.54 2.059-.54.758 0 1.418.158 1.982.476.563.317.999.781 1.307 1.392.312.611.468 1.356.468 2.237v6.946h-2.571v-6.548c0-.734-.189-1.305-.568-1.712-.374-.412-.899-.618-1.577-.618-.454 0-.861.1-1.221.298a2.088 2.088 0 0 0-.838.846c-.199.369-.298.816-.298 1.342zm12.333 6.612c-.691 0-1.314-.123-1.868-.369a3.046 3.046 0 0 1-1.306-1.108c-.318-.488-.476-1.089-.476-1.804 0-.616.113-1.125.341-1.527.227-.403.537-.724.93-.966a4.708 4.708 0 0 1 1.328-.547c.497-.128 1.011-.22 1.541-.277.64-.066 1.158-.125 1.556-.177.398-.057.686-.142.866-.256.185-.118.277-.301.277-.547v-.043c0-.535-.158-.949-.476-1.242-.317-.294-.774-.441-1.37-.441-.63 0-1.13.138-1.499.412-.364.275-.611.599-.739.973l-2.4-.341c.189-.663.502-1.217.937-1.662.436-.45.969-.786 1.598-1.008.63-.228 1.326-.341 2.088-.341.526 0 1.049.061 1.57.185.521.123.997.326 1.428.61.431.28.776.661 1.037 1.144.265.483.397 1.086.397 1.811v7.301h-2.471v-1.499h-.086a3.135 3.135 0 0 1-.66.853 3.18 3.18 0 0 1-1.058.632c-.422.156-.916.234-1.485.234zm.668-1.889c.516 0 .964-.102 1.342-.305.379-.209.67-.483.874-.824.208-.341.312-.713.312-1.115v-1.286c-.08.066-.217.128-.412.185a5.84 5.84 0 0 1-.639.149c-.237.043-.471.08-.703.114l-.604.085a4.504 4.504 0 0 0-1.029.255 1.72 1.72 0 0 0-.718.498c-.175.208-.263.478-.263.809 0 .474.173.831.519 1.073.346.241.786.362 1.321.362zm7.178 1.669v-10.909h2.492v1.818h.114c.199-.63.54-1.115 1.023-1.456a2.81 2.81 0 0 1 1.669-.518c.142 0 .3.007.476.021.18.009.329.026.447.05v2.365a2.74 2.74 0 0 0-.518-.1 4.79 4.79 0 0 0-.675-.049c-.469 0-.89.101-1.264.305-.37.199-.661.476-.874.831a2.343 2.343 0 0 0-.319 1.229v6.413h-2.571zm11.81.213c-1.094 0-2.039-.227-2.834-.682a4.621 4.621 0 0 1-1.826-1.946c-.426-.843-.639-1.835-.639-2.976 0-1.122.213-2.107.639-2.954.431-.852 1.033-1.515 1.804-1.989.772-.478 1.679-.717 2.721-.717.672 0 1.306.109 1.903.327a4.299 4.299 0 0 1 1.591.994c.464.45.829 1.023 1.094 1.719.265.691.397 1.515.397 2.471v.789h-8.941v-1.733h6.477a2.758 2.758 0 0 0-.32-1.314 2.312 2.312 0 0 0-.873-.916c-.37-.223-.8-.334-1.293-.334-.525 0-.987.128-1.385.383a2.637 2.637 0 0 0-.93.995 2.86 2.86 0 0 0-.334 1.342v1.513c0 .634.116 1.179.348 1.633.232.45.556.796.973 1.037.417.237.904.355 1.463.355.374 0 .713-.052 1.016-.156.303-.109.565-.268.788-.476.223-.208.391-.466.504-.774l2.401.27a3.745 3.745 0 0 1-.867 1.662c-.421.469-.961.833-1.619 1.094-.658.255-1.411.383-2.258.383zm6.525 3.878v-15h2.529v1.804h.149c.133-.265.32-.547.561-.845a2.98 2.98 0 0 1 .98-.774c.412-.218.938-.327 1.577-.327.843 0 1.603.215 2.28.646.682.426 1.221 1.058 1.619 1.896.403.834.604 1.857.604 3.069 0 1.198-.197 2.216-.59 3.054-.393.838-.928 1.477-1.605 1.917-.677.441-1.444.661-2.301.661-.625 0-1.143-.104-1.555-.313a3.156 3.156 0 0 1-.995-.753 4.86 4.86 0 0 1-.575-.845h-.107v5.81h-2.571zm2.522-9.546c0 .706.099 1.324.298 1.854.204.53.495.945.874 1.243.383.294.847.44 1.392.44.568 0 1.044-.151 1.427-.454.384-.308.673-.727.867-1.257.199-.535.298-1.144.298-1.826 0-.677-.097-1.278-.291-1.804-.194-.525-.483-.937-.867-1.235-.383-.299-.861-.448-1.434-.448-.55 0-1.016.145-1.399.433-.384.289-.675.694-.874 1.215-.194.521-.291 1.134-.291 1.839zm14.237 5.668c-1.065 0-1.989-.234-2.77-.703a4.782 4.782 0 0 1-1.818-1.967c-.426-.843-.639-1.828-.639-2.955s.213-2.114.639-2.962a4.77 4.77 0 0 1 1.818-1.974c.781-.469 1.705-.703 2.77-.703s1.989.234 2.77.703a4.722 4.722 0 0 1 1.811 1.974c.431.848.646 1.835.646 2.962 0 1.127-.215 2.112-.646 2.955a4.734 4.734 0 0 1-1.811 1.967c-.781.469-1.705.703-2.77.703zm.014-2.06c.578 0 1.061-.158 1.449-.475.388-.322.677-.753.867-1.293.194-.54.291-1.141.291-1.804 0-.668-.097-1.271-.291-1.811-.19-.545-.479-.978-.867-1.3-.388-.322-.871-.483-1.449-.483-.592 0-1.084.161-1.477.483-.388.322-.68.755-.874 1.3a5.453 5.453 0 0 0-.284 1.811c0 .663.095 1.264.284 1.804.194.54.486.971.874 1.293.393.317.885.475 1.477.475zm6.895 1.847v-10.909h2.571V590.5h-2.571zm1.293-12.457c-.407 0-.758-.135-1.051-.405a1.304 1.304 0 0 1-.44-.987c0-.389.146-.718.44-.988a1.487 1.487 0 0 1 1.051-.412c.412 0 .762.138 1.051.412.294.27.441.599.441.988 0 .383-.147.712-.441.987-.289.27-.639.405-1.051.405zm5.993 6.065v6.392h-2.571v-10.909h2.458v1.854h.128a3.108 3.108 0 0 1 1.2-1.456c.554-.36 1.238-.54 2.052-.54.753 0 1.409.161 1.968.483.563.322.999.788 1.306 1.399.313.611.467 1.352.462 2.223v6.946h-2.571v-6.548c0-.729-.189-1.3-.568-1.712-.374-.412-.893-.618-1.555-.618-.45 0-.85.1-1.201.298a2.077 2.077 0 0 0-.817.846c-.194.369-.291.816-.291 1.342zm14.564-4.517v1.989h-6.271v-1.989h6.271zm-4.723-2.614h2.571v10.242c0 .345.052.611.156.795.109.18.251.303.427.37.175.066.369.099.582.099.161 0 .308-.012.44-.036.138-.023.242-.045.313-.063l.433 2.009c-.137.048-.334.1-.589.157-.251.057-.559.09-.924.099-.644.019-1.224-.078-1.74-.291a2.705 2.705 0 0 1-1.228-1.009c-.299-.454-.446-1.022-.441-1.704v-10.668z"/><path stroke="#E5E7EB" stroke-width="2" d="M578 457h156a7 7 0 0 1 7 7v156a7 7 0 0 1-7 7H578a7 7 0 0 1-7-7V464a7 7 0 0 1 7-7z"/><g clip-path="url(#u)"><path fill="#24292F" fill-rule="evenodd" d="M655.904 488.5c-17.728 0-32.06 14.438-32.06 32.299 0 14.277 9.183 26.363 21.922 30.64 1.592.322 2.176-.695 2.176-1.55 0-.749-.053-3.315-.053-5.99-8.918 1.926-10.775-3.85-10.775-3.85-1.433-3.743-3.557-4.705-3.557-4.705-2.919-1.979.213-1.979.213-1.979 3.237.214 4.937 3.316 4.937 3.316 2.865 4.919 7.483 3.529 9.341 2.673.265-2.085 1.115-3.529 2.018-4.331-7.114-.749-14.597-3.529-14.597-15.936 0-3.529 1.273-6.417 3.29-8.662-.318-.802-1.433-4.118.319-8.557 0 0 2.707-.855 8.811 3.316a30.82 30.82 0 0 1 8.015-1.07c2.707 0 5.467.375 8.015 1.07 6.104-4.171 8.811-3.316 8.811-3.316 1.753 4.439.637 7.755.319 8.557 2.07 2.245 3.291 5.133 3.291 8.662 0 12.407-7.484 15.133-14.65 15.936 1.168 1.016 2.176 2.941 2.176 5.989 0 4.331-.053 7.807-.053 8.876 0 .856.584 1.873 2.176 1.552 12.74-4.279 21.922-16.364 21.922-30.641.053-17.861-14.331-32.299-32.007-32.299z" clip-rule="evenodd"/></g><path fill="#121826" d="M595.179 580.599a3.764 3.764 0 0 0-.49-1.029 3.176 3.176 0 0 0-.739-.789 2.978 2.978 0 0 0-.98-.49 4.109 4.109 0 0 0-1.207-.17c-.781 0-1.477.196-2.088.589-.611.393-1.092.971-1.442 1.733-.346.758-.519 1.681-.519 2.77 0 1.099.173 2.029.519 2.791.346.763.826 1.343 1.442 1.74.615.393 1.33.59 2.145.59.738 0 1.377-.142 1.917-.426a2.997 2.997 0 0 0 1.257-1.208c.294-.525.441-1.141.441-1.846l.596.092h-3.949v-2.06h5.902v1.748c0 1.245-.265 2.322-.795 3.231a5.431 5.431 0 0 1-2.188 2.102c-.928.488-1.993.732-3.196.732-1.34 0-2.516-.301-3.529-.902-1.009-.606-1.797-1.466-2.365-2.578-.564-1.118-.846-2.443-.846-3.978 0-1.174.166-2.223.497-3.146.337-.923.805-1.707 1.407-2.351a5.991 5.991 0 0 1 2.116-1.477 6.74 6.74 0 0 1 2.642-.511c.805 0 1.556.118 2.252.355a5.95 5.95 0 0 1 1.853.994c.545.431.992.942 1.343 1.534.35.592.58 1.245.689 1.96h-2.685zm5.423 9.901v-10.909h2.571V590.5h-2.571zm1.293-12.457c-.407 0-.758-.135-1.051-.405a1.305 1.305 0 0 1-.441-.987c0-.389.147-.718.441-.988a1.487 1.487 0 0 1 1.051-.412c.412 0 .762.138 1.051.412.294.27.44.599.44.988 0 .383-.146.712-.44.987-.289.27-.639.405-1.051.405zm8.87 1.548v1.989h-6.272v-1.989h6.272zm-4.723-2.614h2.571v10.242c0 .345.052.611.156.795.109.18.251.303.426.37.175.066.369.099.582.099.161 0 .308-.012.441-.036a4.04 4.04 0 0 0 .312-.063l.433 2.009c-.137.048-.333.1-.589.157a4.78 4.78 0 0 1-.923.099c-.644.019-1.224-.078-1.74-.291a2.702 2.702 0 0 1-1.229-1.009c-.298-.454-.445-1.022-.44-1.704v-10.668zm9.178 7.131v6.392h-2.571v-14.545h2.514v5.49h.128a3.155 3.155 0 0 1 1.186-1.456c.54-.36 1.227-.54 2.06-.54.758 0 1.418.158 1.981.476a3.2 3.2 0 0 1 1.307 1.392c.313.611.469 1.356.469 2.237v6.946h-2.571v-6.548c0-.734-.189-1.305-.568-1.712-.374-.412-.9-.618-1.577-.618-.454 0-.862.1-1.221.298a2.09 2.09 0 0 0-.839.846c-.198.369-.298.816-.298 1.342zm16.148 1.804v-6.321h2.571V590.5h-2.493v-1.939h-.114a3.285 3.285 0 0 1-1.214 1.499c-.559.388-1.248.582-2.067.582-.715 0-1.347-.159-1.896-.476-.545-.322-.971-.788-1.279-1.399-.307-.615-.461-1.359-.461-2.23v-6.946h2.571v6.548c0 .691.189 1.241.568 1.648.379.407.876.611 1.491.611.379 0 .746-.093 1.101-.277.355-.185.647-.46.874-.824.232-.369.348-.831.348-1.385zm4.828 4.588v-14.545h2.571v5.44h.107c.133-.265.32-.547.561-.845.241-.303.568-.561.98-.774.412-.218.938-.327 1.577-.327.843 0 1.603.215 2.28.646.681.426 1.221 1.058 1.619 1.896.402.834.604 1.857.604 3.069 0 1.198-.197 2.216-.59 3.054-.393.838-.928 1.477-1.605 1.917-.677.441-1.444.661-2.301.661-.625 0-1.144-.104-1.555-.313a3.156 3.156 0 0 1-.995-.753 4.86 4.86 0 0 1-.575-.845h-.149v1.719h-2.529zm2.522-5.455c0 .706.099 1.324.298 1.854.204.53.495.945.874 1.243.383.294.847.44 1.392.44.568 0 1.044-.151 1.427-.454.384-.308.673-.727.867-1.257.199-.535.298-1.144.298-1.826 0-.677-.097-1.278-.291-1.804-.194-.525-.483-.937-.867-1.235-.383-.299-.861-.448-1.434-.448-.55 0-1.016.145-1.4.433-.383.289-.674.694-.873 1.215-.194.521-.291 1.134-.291 1.839zm14.037 5.455v-14.545h5.455c1.117 0 2.054.208 2.812.625.762.416 1.338.989 1.726 1.718.393.725.589 1.549.589 2.472 0 .933-.196 1.761-.589 2.486-.393.724-.973 1.295-1.74 1.711-.767.412-1.712.618-2.834.618h-3.615v-2.166h3.26c.653 0 1.188-.114 1.605-.341a2.15 2.15 0 0 0 .923-.937c.204-.398.306-.855.306-1.371s-.102-.971-.306-1.364a2.077 2.077 0 0 0-.93-.916c-.417-.222-.954-.334-1.612-.334h-2.415V590.5h-2.635zm12.257 0v-10.909h2.493v1.818h.114c.199-.63.54-1.115 1.023-1.456a2.81 2.81 0 0 1 1.669-.518c.142 0 .3.007.476.021.18.009.329.026.447.05v2.365a2.74 2.74 0 0 0-.518-.1 4.79 4.79 0 0 0-.675-.049c-.469 0-.89.101-1.264.305-.37.199-.661.476-.874.831-.213.355-.32.765-.32 1.229v6.413h-2.571zm11.739.213c-1.065 0-1.988-.234-2.769-.703a4.778 4.778 0 0 1-1.819-1.967c-.426-.843-.639-1.828-.639-2.955s.213-2.114.639-2.962a4.766 4.766 0 0 1 1.819-1.974c.781-.469 1.704-.703 2.769-.703 1.066 0 1.989.234 2.77.703a4.716 4.716 0 0 1 1.811 1.974c.431.848.647 1.835.647 2.962 0 1.127-.216 2.112-.647 2.955a4.727 4.727 0 0 1-1.811 1.967c-.781.469-1.704.703-2.77.703zm.015-2.06c.577 0 1.06-.158 1.448-.475.389-.322.678-.753.867-1.293.194-.54.291-1.141.291-1.804 0-.668-.097-1.271-.291-1.811-.189-.545-.478-.978-.867-1.3-.388-.322-.871-.483-1.448-.483-.592 0-1.085.161-1.478.483-.388.322-.679.755-.873 1.3-.19.54-.284 1.143-.284 1.811 0 .663.094 1.264.284 1.804.194.54.485.971.873 1.293.393.317.886.475 1.478.475zm6.895-9.062h2.571v11.534c0 .786-.149 1.435-.448 1.946a2.742 2.742 0 0 1-1.292 1.143c-.564.251-1.248.377-2.053.377-.094 0-.182-.002-.263-.007-.08 0-.168-.003-.262-.007v-2.095c.071.004.135.007.191.007.057.004.116.007.178.007.492 0 .845-.121 1.058-.362.213-.237.32-.585.32-1.045v-11.498zm1.278-1.548c-.412 0-.764-.135-1.058-.405a1.315 1.315 0 0 1-.433-.987 1.3 1.3 0 0 1 .433-.988 1.497 1.497 0 0 1 1.058-.412c.407 0 .755.138 1.044.412.294.27.441.599.441.988 0 .383-.147.712-.441.987-.289.27-.637.405-1.044.405zm8.266 12.67c-1.093 0-2.038-.227-2.834-.682a4.62 4.62 0 0 1-1.825-1.946c-.426-.843-.639-1.835-.639-2.976 0-1.122.213-2.107.639-2.954.431-.852 1.032-1.515 1.804-1.989.772-.478 1.679-.717 2.72-.717.673 0 1.307.109 1.904.327a4.307 4.307 0 0 1 1.591.994c.464.45.828 1.023 1.093 1.719.266.691.398 1.515.398 2.471v.789h-8.942v-1.733h6.478a2.77 2.77 0 0 0-.32-1.314 2.314 2.314 0 0 0-.874-.916c-.369-.223-.8-.334-1.292-.334-.526 0-.987.128-1.385.383a2.647 2.647 0 0 0-.931.995 2.859 2.859 0 0 0-.333 1.342v1.513c0 .634.116 1.179.348 1.633.232.45.556.796.973 1.037.416.237.904.355 1.463.355.374 0 .712-.052 1.015-.156.303-.109.566-.268.789-.476.222-.208.39-.466.504-.774l2.401.27a3.755 3.755 0 0 1-.867 1.662c-.421.469-.961.833-1.619 1.094-.658.255-1.411.383-2.259.383zm11.285 0c-1.089 0-2.024-.239-2.806-.717a4.797 4.797 0 0 1-1.797-1.982c-.416-.847-.625-1.823-.625-2.926 0-1.108.213-2.086.64-2.933.426-.852 1.027-1.515 1.804-1.989.781-.478 1.704-.717 2.769-.717.886 0 1.67.163 2.351.49a4.013 4.013 0 0 1 1.641 1.371c.407.587.639 1.273.696 2.059h-2.457a2.358 2.358 0 0 0-.711-1.314c-.369-.355-.864-.532-1.484-.532-.526 0-.987.142-1.385.426-.398.279-.708.682-.93 1.207-.218.526-.327 1.156-.327 1.889 0 .744.109 1.383.327 1.918.217.53.523.94.916 1.229.398.284.864.426 1.399.426.379 0 .717-.071 1.016-.213.303-.147.556-.358.76-.632.203-.275.343-.609.419-1.002h2.457c-.062.772-.289 1.456-.682 2.053a4.035 4.035 0 0 1-1.605 1.392c-.677.331-1.472.497-2.386.497zm11.732-11.122v1.989h-6.272v-1.989h6.272zm-4.723-2.614h2.571v10.242c0 .345.052.611.156.795.109.18.251.303.426.37.175.066.369.099.582.099.161 0 .308-.012.441-.036a4.04 4.04 0 0 0 .312-.063l.433 2.009c-.137.048-.333.1-.589.157a4.78 4.78 0 0 1-.923.099c-.644.019-1.224-.078-1.74-.291a2.707 2.707 0 0 1-1.229-1.009c-.298-.454-.445-1.022-.44-1.704v-10.668zm14.839 5.497-2.344.256a1.88 1.88 0 0 0-.348-.668 1.736 1.736 0 0 0-.653-.504c-.275-.128-.611-.192-1.009-.192-.535 0-.985.116-1.349.348-.36.232-.538.533-.533.902a.943.943 0 0 0 .348.775c.241.198.639.362 1.193.49l1.861.397c1.032.223 1.799.576 2.301 1.059.507.483.762 1.115.767 1.896a2.964 2.964 0 0 1-.604 1.818c-.393.521-.939.928-1.64 1.222-.701.293-1.506.44-2.415.44-1.335 0-2.41-.279-3.224-.838-.815-.563-1.3-1.347-1.456-2.351l2.507-.241c.113.492.355.864.724 1.115s.85.376 1.442.376c.611 0 1.101-.125 1.47-.376.374-.251.561-.561.561-.931a.971.971 0 0 0-.362-.774c-.237-.203-.606-.36-1.108-.469l-1.861-.39c-1.046-.218-1.82-.585-2.322-1.101-.502-.521-.751-1.179-.746-1.974-.005-.673.178-1.255.547-1.748.374-.497.892-.88 1.555-1.15.668-.275 1.437-.412 2.309-.412 1.278 0 2.284.272 3.018.817.739.544 1.196 1.28 1.371 2.208z"/><defs><linearGradient id="b" x1="7556.14" x2="4587.54" y1="66.254" y2="3535.49" gradientUnits="userSpaceOnUse"><stop offset=".18" stop-color="#0052CC"/><stop offset="1" stop-color="#2684FF"/></linearGradient><linearGradient id="c" x1="7743.69" x2="4309.79" y1="104.952" y2="3888.81" gradientUnits="userSpaceOnUse"><stop offset=".18" stop-color="#0052CC"/><stop offset="1" stop-color="#2684FF"/></linearGradient><linearGradient id="e" x1="290.704" x2="337.898" y1="82.142" y2="82.142" gradientUnits="userSpaceOnUse"><stop stop-color="#8930FD"/><stop offset="1" stop-color="#49CCF9"/></linearGradient><linearGradient id="f" x1="291.733" x2="336.951" y1="49.34" y2="49.34" gradientUnits="userSpaceOnUse"><stop stop-color="#FF02F0"/><stop offset="1" stop-color="#FFC800"/></linearGradient><linearGradient id="g" x1="570.813" x2="530.792" y1="98.627" y2="75.626" gradientUnits="userSpaceOnUse"><stop stop-color="#0052CC"/><stop offset=".92" stop-color="#2380FB"/><stop offset="1" stop-color="#2684FF"/></linearGradient><linearGradient id="h" x1="513.176" x2="553.207" y1="29.403" y2="52.403" gradientUnits="userSpaceOnUse"><stop stop-color="#0052CC"/><stop offset=".92" stop-color="#2380FB"/><stop offset="1" stop-color="#2684FF"/></linearGradient><linearGradient id="l" x1="3254" x2="3254" y1="260" y2="6660" gradientUnits="userSpaceOnUse"><stop stop-color="#0091E6"/><stop offset="1" stop-color="#0079BF"/></linearGradient><linearGradient id="o" x1="1479.55" x2="1479.55" y1="309.288" y2="1728.98" gradientUnits="userSpaceOnUse"><stop offset=".006" stop-color="#FFE513"/><stop offset="1" stop-color="#FDB924"/></linearGradient><linearGradient id="p" x1="839.063" x2="2225.71" y1="492.736" y2="1617.34" gradientUnits="userSpaceOnUse"><stop offset=".006" stop-color="#008CD2"/><stop offset="1" stop-color="#00649D"/></linearGradient><linearGradient id="q" x1="1631.33" x2="1631.33" y1="780.537" y2="2024.33" gradientUnits="userSpaceOnUse"><stop stop-color="#26A146"/><stop offset="1" stop-color="#008A52"/></linearGradient><linearGradient id="r" x1="1415.68" x2="1621.68" y1="412.388" y2="1705.13" gradientUnits="userSpaceOnUse"><stop stop-color="#D92231"/><stop offset="1" stop-color="#BA2234"/></linearGradient><linearGradient id="t" x1="401.277" x2="422.728" y1="501.352" y2="538.792" gradientUnits="userSpaceOnUse"><stop stop-color="#058F92"/><stop offset=".5" stop-color="#038489"/><stop offset="1" stop-color="#026D71"/></linearGradient><clipPath id="a"><path fill="#fff" d="M54 32h64v64H54z"/></clipPath><clipPath id="d"><path fill="#fff" d="M282 32h64v64h-64z"/></clipPath><clipPath id="i"><path fill="#fff" d="M738 32h64v64h-64z"/></clipPath><clipPath id="k"><path fill="#fff" d="M54 260h64v64H54z"/></clipPath><clipPath id="m"><path fill="#fff" d="M282 260.538h64v62.925h-64z"/></clipPath><clipPath id="n"><path fill="#fff" d="M510 260h64v64h-64z"/></clipPath><clipPath id="s"><path fill="#fff" d="M395.5 488.5h65v63h-65z"/></clipPath><clipPath id="u"><path fill="#fff" d="M623.844 488.5h64.313v63h-64.313z"/></clipPath><radialGradient id="j" cx="0" cy="0" r="1" gradientTransform="matrix(45.5394 0 0 42.0927 770.353 67.347)" gradientUnits="userSpaceOnUse"><stop stop-color="#FFB900"/><stop offset=".6" stop-color="#F95D8F"/><stop offset=".999" stop-color="#F95353"/></radialGradient></defs></svg>